<?xml version="1.0" encoding="UTF-8" standalone="no"?>
<!-- Created with Inkscape (http://www.inkscape.org/) -->

<svg
   version="1.1"
   id="svg3087"
   xml:space="preserve"
   width="682.66669"
   height="682.66669"
   viewBox="0 0 682.66669 682.66669"
   xmlns="http://www.w3.org/2000/svg"
   xmlns:svg="http://www.w3.org/2000/svg"><defs
     id="defs3091"><clipPath
       clipPathUnits="userSpaceOnUse"
       id="clipPath3101"><path
         d="M 0,512 H 512 V 0 H 0 Z"
         id="path3099" /></clipPath></defs><g
     id="g3093"
     transform="matrix(1.3333333,0,0,-1.3333333,0,682.66667)"><g
       id="g3095"><g
         id="g3097"
         clip-path="url(#clipPath3101)"><g
           id="g3103"
           transform="translate(207.7998,127.4668)"><path
             d="m 0,0 v 241 h 80.334 c 17.03,0 33.419,-6.771 45.469,-18.822 12.05,-12.05 18.798,-28.398 18.798,-45.445 0,-35.491 -28.76,-64.266 -64.267,-64.266 H -32.133"
             style="fill:none;stroke:#000000;stroke-width:30;stroke-linecap:round;stroke-linejoin:round;stroke-miterlimit:10;stroke-dasharray:none;stroke-opacity:1"
             id="path3105" /></g><g
           id="g3107"
           transform="translate(288.1338,175.667)"><path
             d="M 0,0 H -112.467"
             style="fill:none;stroke:#000000;stroke-width:30;stroke-linecap:round;stroke-linejoin:round;stroke-miterlimit:10;stroke-dasharray:none;stroke-opacity:1"
             id="path3109" /></g><g
           id="g3111"
           transform="translate(256,497)"><path
             d="m 0,0 c 133.032,0 241,-107.992 241,-241 0,-133.008 -107.968,-241 -241,-241 -133.032,0 -241,107.992 -241,241 0,133.008 107.968,241 241,241 z"
             style="fill:none;stroke:#000000;stroke-width:30;stroke-linecap:round;stroke-linejoin:round;stroke-miterlimit:10;stroke-dasharray:none;stroke-opacity:1"
             id="path3113" /></g></g></g></g></svg>
