<?xml version="1.0" encoding="UTF-8"?><svg id="_лой_2" xmlns="http://www.w3.org/2000/svg" viewBox="0 0 37.99 43.58"><defs><style>.cls-1{fill:#fff;}</style></defs><g id="OBJECTS"><g><path class="cls-1" d="M26.79,7.36c-.86-.45-.84-.78-.57-1.46,.55-1.38,.97-2.81,1.06-4.3,.03-.59,.14-1.72-.58-1.59-.77,.14-2.1-.08-2.25,1.51-.09,.92-.05,1.84-.12,2.75-.16,2.09-.2,2.23-2.14,1.83C13.49,4.32,3.47,9.99,1.09,18.85,.06,21-.12,23.55,.07,26.13c.52,7.04,4.77,13.07,11.23,15.8,5.77,2.44,11.55,2.22,17.06-.92,5.87-3.35,9.22-8.45,9.6-15.19,.48-8.59-3.71-14.59-11.16-18.45Zm3.58,4.49c-1.72-.06-2.47-1.06-3.09-2.27,.96,.7,1.92,1.41,3.09,2.27Zm-5.75-3.07c.63,2-.82,2.92-1.98,3.98,.41-1.44,.61-3,1.98-3.98Zm-1.69-.98c-1.64,.62-2.83,2.06-4.75,1.14,1.43-.99,2.84-1.54,4.75-1.14Zm12,21.74c-2.32,7.87-9.68,12.16-16.31,11.98-9.54-.25-16.9-8.15-16.63-17.86,.16-5.91,3.04-10.39,7.96-13.66,2.39-1.59,4.99-2.28,8.07-2.64-.69,.83-1.73,1.38-1.24,2.06,.55,.77,1.71,.87,2.72,.87,1.06,0,2.01-.39,3.16-1.09-.93,1.53-1.57,2.79-1.45,4.28,.08,1,.61,1.25,1.45,.78,1.16-.64,2.11-1.51,2.73-2.7,.39-.76,.58-1.46,1.51-.24,.94,1.23,2.29,2.08,4.05,2.03,1.38-.04,1.91,1.26,2.4,2.18,2.39,4.43,3.03,9.04,1.57,14.01Z"/><path class="cls-1" d="M8.94,15.24c-.36-.51-.61,.23-1.06,.08,.38-.93,1.12-1.34,1.63-1.94,.28-.33,.55-.77,.12-1.16-.42-.39-.67,.08-.95,.3-2.76,2.13-4.58,4.88-5.42,8.27-.12,.47-.19,1.06,.58,1.41,.52-1.87,1.25-3.58,2.61-5.07,.06,1.21-1.64,1.88-.75,3.27,1.1-1.47,2.13-2.9,3.22-4.28,.28-.36,.2-.6,.01-.86Z"/><path class="cls-1" d="M28.06,35.78c3.84-.78,5.9-8.03,3.23-10.16,.67,3.99-.83,7.07-3.23,10.16Z"/><path class="cls-1" d="M9.92,34.82c-.16-.26-.51-.4-.7-.65-.24-.32-.45-.4-.77-.15-.28,.22-.2,.45-.1,.73,.99,2.54,5.04,5.45,8.26,4.31-.5-.58-1.07-.62-1.58-.77-2.09-.61-3.91-1.57-5.12-3.47Z"/><path class="cls-1" d="M29.73,28.74c-.89,1.69-1.73,3.3-2.57,4.92-.06,.12-.04,.28-.06,.45,2.17-.9,3.39-3.33,2.63-5.37Z"/><path class="cls-1" d="M12.68,36.07c.95,.3,1.87,.94,3.08,.27-.75-.82-1.6-1.23-2.54-1.49-.43-.12-.82-.03-.99,.32-.19,.38,.06,.77,.45,.9Z"/></g></g></svg>