<?xml version="1.0" encoding="UTF-8"?><svg id="_лой_2" xmlns="http://www.w3.org/2000/svg" viewBox="0 0 52.38 53.42"><defs><style>.cls-1{fill:#fff;}</style></defs><g id="OBJECTS"><g><path class="cls-1" d="M51.82,25.68c.89-1.58,.41-3.31,.54-4.75,0-3.41-.02-3.4-1.41-6.26-.86-1.76-1.43-3.65-2.82-5.17-1.38-1.51-2.47-3.28-4.62-3.84-2.13-.55-3.93-1.63-5.35-3.34-.53-.64-1.23-1.05-2.05-1.35C31.89-.61,27.53,.2,23.23,.26c-.98,.01-2.23-.08-3.06,.71-1.1,1.05-2.39,.89-3.69,.89-2.99,0-5.82,2.14-6.46,5.08-.21,.96-.7,1.28-1.49,1.46-3.16,.7-3.91,1.64-3.97,4.86,0,.4,.27,.87-.39,1.18-3.44,1.61-2.59,5.2-3.55,7.95-.14,.41,.24,.87,.54,1.22,.18,.21,.45,.43,.15,.71C-.22,25.75,.02,27.62,0,29.43c-.01,1.71,.6,3.07,2.06,4.01,.27,.17,.46,.3,.4,.76-.23,1.59,.86,3.1,2.5,3.16,1.27,.05,1.34,.63,1.32,1.6-.04,1.66,.88,2.93,2.43,3.25,.54,.11,.56,.3,.72,.74,.71,1.95,1.99,3.42,4,4.14,.86,.31,1.98,1.2,2.74,2.04,1.53,1.67,3.32,2.85,5.72,2.79,2.17-.06,4.24-.42,6.43,.74,1.79,.95,4.1,.78,6.22,.68,2.44-.11,4.36-1.11,5.55-3.31,.35-.64,.6-1.33,.95-1.98,.18-.34,.38-.66,.8-.87,2.09-1.01,3.92-2.45,5.35-4.25,2.06-2.6,2.89-5.66,2.39-8.98-.07-.5,.05-.76,.33-1.11,1.55-1.94,2.73-3.99,1.88-6.62-.05-.17-.07-.41,.01-.56Zm-.81,1.55c.05,1.72-.34,3.3-1.48,4.63-.71,.82-.9,1.74-.9,2.82,0,1.48-.35,2.94-.69,4.4-.58,2.51-2.52,3.97-4.42,5.87,.39-1.24,.48-2.19-.37-2.96-.22-.2-.43-.36-.74-.29-.41,.09-.27,.43-.28,.68-.02,.47-.03,.95,0,1.42,.07,1.26-.34,2.02-1.77,1.87-.27-.03-.7-.21-.79,.31-.06,.33,.11,.54,.37,.69,.25,.15,.66,.15,.37,.67-1.25,2.22-2.28,4.87-5.32,4.86-2.62,0-5.42,.24-7.72-1.58-.29-.23-.63-.12-.94-.12-1.33-.01-2.65-.02-3.98,0-2.73,.02-4.87-1-6.04-3.56-.31-.68-.75-.7-1.33-.71-1.9-.03-4.31-1.81-4.78-3.68-.13-.53-.39-.8-.73-1.1h0c-2.04-.91-2.44-2.46-1.4-4.83,.15-.34,.7-.63,.19-1.04-.54-.44-.83,.18-.98,.44-.68,1.14-1.53,1-2.41,.4-1.25-.85-1.56-1.91-.95-3.03,.1-.19,.28-.35,.41-.5-.27-.47-.76-.39-.91-.26-.91,.79-1.27,.16-1.5-.57-.71-2.23-.92-4.45,.35-6.56,.26-.43,.65-.97,1.07-1.06,.65-.14,.83-.47,.63-.94-.24-.59-.94-.39-1.21-.2-1.14,.8-1.15-.08-1-.71,.34-1.42,.53-3.03,2.42-3.36,.3-.05,.39-.17,.39-.45,0-.29-.24-.32-.39-.47-.64-.59-1.13,.15-1.68,.09,.38-1.71,1.64-2.93,3.36-3.15,.4-.05,.85-.07,.94-.46,.15-.65-.52-.33-.79-.51-.85-.55-.59-1.29-.36-1.98,.62-1.9,2.21-2.47,3.95-2.73,.66-.1,.92-.02,1.04-1,.25-1.96,1.37-3.7,3.05-4.81,.93-.61,1.26,.46,1.71,1.09,.28,.39-.04,1.37,.72,1.16,.71-.19,.42-1.06,.37-1.64-.04-.44-.28-.87-.51-1.55,2.58,1.12,4.34-1.01,6.54-1.36,1-.16,1.97-.06,2.93-.16,.19,.34-.08,.56-.2,.75-.26,.4-.38,.9-.06,1.16,.39,.33,.75-.1,1.06-.4,.99-.94,2.11-.77,3.25-.36,.47,.17,.91,.38,1.36,.57,.45-.68-.06-1.16-.32-1.7,3.68-.14,6.79,.79,8.76,4.3-.23,.21-1.01,.55-.35,1.45,1.83-1.54,3.57-.35,5.32,.28,.33,.12,.98,.47,.11,.95-.4,.22-.47,.57,.22,.68,2.34,.38,3.1,1.33,2.93,3.55-.05,.64,.27,1.05,.79,.61,.69-.59,.76-.23,.93,.34,.23,.78,1.16,1.47,.29,2.4-.09,.09-.04,.46,.19,.44,.85-.07,1.13,.4,1.23,1.14,.12,.88-.19,1.56-.81,2.13-.1,.09-.16,.21-.35,.47,1.5-.27,1.73,.58,1.73,1.66,0,1.26,.14,2.56-.59,3.68-.44,.67,.06,1.22,.08,1.83Z"/><path class="cls-1" d="M45.76,21.19c-.51,.07-.76,.28-.79,.79-.04,.49,.13,.68,.64,.65,.61-.03,.73,.36,.82,.91,.12,.76,.16,1.41-.47,2.02-.18,.18-.61,.63-.29,.94,.31,.29,.78,.54,1.28,.39,1.17-.35,1.63-1.16,1.45-2.23,0-2.26-1.12-3.67-2.63-3.46Z"/><path class="cls-1" d="M25.49,32.51c.23-.15,.76-.09,.67-.57-.06-.35-.45-.41-.72-.58-.83-.52-1.33,.08-1.8,.53-.75,.72-1.1,1.63-.71,2.65,.34,.89,1.06,1.26,2.05,1.15,.43,.02,1.02,.11,1.17-.45,.16-.64-.52-.33-.79-.5-1.11-.7-1.06-1.47,.14-2.25Z"/><path class="cls-1" d="M12.34,29.48c-.45-.17-.79-.39-1.4-.1-1.26,.6-2.11,1.37-2.42,2.78-.35,1.6-.03,2.13,1.76,2.37-.78-1.91-.01-3.54,1.91-4.21,.22-.08,.5-.08,.55-.34,.04-.25-.19-.41-.4-.49Z"/><path class="cls-1" d="M9.63,28.38c.08-.38-.3-.47-.55-.67-.44-.34-1.24-.59-.97-1.32,.16-.43,.17-1.2,.92-1.19,.47,0,.81-.1,.63-.6-.17-.49-.52-.93-1.15-.84-1.12,.16-2.09,1.74-1.95,3.16,.1,1.05,1.01,1.69,2.37,1.66,.22-.08,.62,.18,.7-.21Z"/><path class="cls-1" d="M33.02,39.92c.17-.31,.51-.65,.16-.99-.32-.31-.59,.14-.86,.24-1.43,.53-1.77,.39-2.15-1.09-.11-.42-.31-.68-.76-.65-.44,.03-.6,.31-.67,.74-.29,1.74,.7,2.96,2.49,2.95,.92,.15,1.4-.46,1.79-1.19Z"/><path class="cls-1" d="M33.74,4.11c.79-.19,1.38,0,1.68,.79,.29,.77,.9,1.42,.73,2.44,1.34-.44,1.24-1.38,1.11-2.18-.18-1.08-.68-2.04-1.83-2.43-.77-.26-1.5-.24-2.13,.41-.22,.23-.34,.46-.27,.75,.1,.4,.47,.28,.7,.23Z"/><path class="cls-1" d="M32.72,11.98c1.51-.12,1.66,.09,1.28,1.56-.1,.39-.36,.87,.15,1.08,.43,.17,.95,.08,1.15-.49,.18-.52,.69-.91,.58-1.5,0-.13,.01-.23,0-.32-.19-1.05-.87-1.74-1.81-2.1-.7-.27-1.2,.24-1.68,.69-.24,.23-.27,.51-.15,.77,.08,.17,.17,.34,.49,.32Z"/><path class="cls-1" d="M9.18,18.34c.25-.13,.54-.29,.47-.61-.04-.19-.26-.39-.44-.47-1.08-.46-2.56,.4-3.06,1.76-.71,1.91-.49,2.45,1.17,2.96-.39-1.93-.03-2.63,1.87-3.64Z"/><path class="cls-1" d="M41.18,11.25c.53,.04,.67,.41,.66,.89-.03,.92,.13,1.85-.42,2.94,1.41-.28,1.77-1.08,1.85-2.15,.09-1.25-.1-2.38-1.31-2.99-.66-.34-1.44,.03-1.69,.56-.32,.69,.39,.71,.91,.76Z"/><path class="cls-1" d="M27.34,46.11c-.97,.24-1.95,.28-2.48-.63-.28-.48-.45-.83-.95-.63-.59,.23-.3,.83-.24,1.23,.09,.58,.52,1.01,1.06,1.24,1.65,.68,3.32,.5,4.27-1.54-.64-.34-1.13,.19-1.66,.33Z"/><path class="cls-1" d="M39.49,29.55c-.25-.68-.74-1.58-1.5-1.42-.82,.17-.17,.99-.14,1.53,.03,.5,.07,1-.34,1.45-.42,.46-.74,1.02-1.11,1.55,2.04,.4,3.75-1.34,3.09-3.11Z"/><path class="cls-1" d="M34.9,47.65c-.57,.59-1.25,.89-1.83,.37-.43-.38-.67-.5-1-.11-.33,.39-.32,.86,.07,1.27,.47,.5,1.02,.8,1.77,.74,1.03,.17,1.68-.52,2.12-1.29,.17-.3,.76-.85,.18-1.35-.58-.49-.99,.05-1.3,.36Z"/><path class="cls-1" d="M39.57,35.44c-.42,.07-.37,.46-.25,.66,.66,1.11-.3,1.78-.63,2.64-.23,.6-1.15,.93-.71,1.85,.48-.22,.96-.38,1.38-.63,1.5-.9,2.1-2.88,1.31-4.08-.29-.44-.66-.5-1.1-.43Z"/><path class="cls-1" d="M23.84,41.38c-1.21-.64-2.62-.97-2.15-2.59,.14-.47,.32-.83-.19-1.02-.51-.19-.86,.1-1.05,.63-.38,1.06-.59,2.17,.26,3.02,.84,.83,1.91,.75,3.12-.04Z"/><path class="cls-1" d="M18.29,7.25c.73,.13,.47-.56,.63-.86,.61-1.17,1.38-1.53,2.01-.85,.17,.18,.11,.72,.48,.52,.26-.14,.49-.59,.48-.9-.01-.56-.26-1.03-.84-1.34-1.37-.72-3.12,.58-3.15,2.48,.27,.19-.3,.81,.38,.94Z"/><path class="cls-1" d="M38.46,23.1c-.12,.22-.56,.55-.21,.83,.29,.24,.68,.11,1.06-.03,.86-.32,.85-1,.82-1.79,.21-1.03-.33-1.83-1.13-2.46-.39-.31-.9-.31-1.26,.12-.35,.43-.02,.61,.28,.97,.52,.63,.95,1.42,.45,2.36Z"/><path class="cls-1" d="M29.35,21.45c-.09,.23-.18,.88,.18,.83,1.8-.27,.96,1.11,1.27,1.83-.08,.29-.2,.6-.22,.91-.01,.19,.14,.5,.41,.3,.83-.62,1.28-1.43,1.19-2.53-.09-1.04-.59-1.78-1.52-2.13-.63-.24-1.09,.25-1.31,.79Z"/><path class="cls-1" d="M30.55,33.41c.6,0,.95-.44,1.18-.74,.71-.92,1.03-1.96,.39-3.1-.38-.67-.89-1.06-1.68-.98-.22,.02-.51-.05-.53,.29-.01,.17,.04,.47,.13,.5,1.03,.34,.6,1.19,.73,1.88,.14,.74-.46,1.4-.21,2.15Z"/><path class="cls-1" d="M21.65,15.83c.07,.32,.35,.25,.56,.23,1.14-.08,1.39,.51,1.12,1.48-.07,.24-.34,.46,.02,.68,.26,.16,.51,.2,.78,.04,.53-.32,.96-.72,.93-1.26,0-1.21-.59-1.88-1.5-2.24-.57-.23-1.18-.24-1.66,.32-.21,.24-.31,.47-.25,.76Z"/><path class="cls-1" d="M19.58,45.5c-1.02-.59-1.84-1.25-1.66-2.6,.04-.32-.22-.52-.47-.62-.25-.09-.4,.18-.58,.31-.47,.34-.35,.82-.36,1.28,.01,1.28,1.38,2.63,2.68,2.65,.33,0,.71,.05,.86-.3,.18-.41-.25-.59-.47-.72Z"/><path class="cls-1" d="M45.9,35.32c-.37-.21-.67-.28-1.01,.03-.46,.42-.06,.66,.2,.9,.44,.39,.57,.83,.35,1.37-.28,.67-.44,1.39-1.01,1.95,1.69,.55,2.21-.52,2.47-1.63,.23-1,.06-2.01-1-2.61Z"/><path class="cls-1" d="M14.4,19c-.88,.45-1.91,.91-1.86,2.18,.04,1.07,.95,1.82,2.24,1.89,.1-.47-.36-.62-.53-.92-.54-.91-.26-1.53,.7-1.77,.44-.11,.93-.07,.67-.69-.2-.47-.68-.96-1.21-.69Z"/><path class="cls-1" d="M46.61,28.63c-.5,.18-.66,.57-.36,1.12,.35,.63,.07,1.24-.19,1.85-.21,.47-.92,1.05-.36,1.44,.56,.39,1.14-.28,1.65-.68,.53-.42,.47-1.08,.79-1.59-.2-.52-.43-1.02-.59-1.54-.15-.49-.48-.76-.93-.6Z"/><path class="cls-1" d="M12.41,11.05c.1-1.67,1.18-2.16,2.49-2.35,.33-.05,.63-.19,.64-.42,0-.21-.28-.55-.49-.6-.49-.12-1.02-.2-1.51-.11-1.02,.19-1.71,.89-2.08,1.83-.3,.74,.13,1.23,.95,1.65Z"/><path class="cls-1" d="M20.68,26.07c.24-.13,.8,.1,.62-.46-.12-.39-.54-.45-.95-.44-1.06,.02-2.33,1.29-2.33,2.66,0,1.04,.7,1.71,2.1,1.96-1.26-1.46-.95-2.9,.56-3.72Z"/><path class="cls-1" d="M45.64,15.83c.47,.24,.74,.65,1.05,1.07,.65,.87-.18,1.67-.01,2.7,.43-.42,.75-.68,1.03-.99,.68-.77,.5-1.61,.13-2.45-.39-.86-1.06-1.24-2-1.23-.37,0-.71,.12-.81,.44-.17,.57,.38,.34,.62,.46Z"/><path class="cls-1" d="M28.43,6.77c.78-.12,.97,.42,1.22,1.03,.14,.36,.09,1.21,.78,.98,.65-.22,.75-.92,.5-1.56-.37-.94-.81-1.83-2.08-1.66-.19,0-.38-.02-.57,0-.63,.07-.74,.52-.66,1.03,.11,.71,.49,.23,.81,.18Z"/><path class="cls-1" d="M24.16,11.24c1.53-.21,2.23,.62,2.48,2.41,.74-1.26,1-2.12,.25-2.95-.77-.86-1.79-.66-2.77-.47-.33,.06-.57,.3-.5,.72,.06,.35,.32,.32,.53,.29Z"/><path class="cls-1" d="M17.78,16.57c.32-.13,.44-.26,.16-.68-.61-.92-.27-1.72,.69-2.06,.88-.31,.34-.58,.06-.82-.51-.44-1.04-.22-1.45,.16-.66,.6-1.24,1.26-.93,2.27,.22,.7,.91,.8,1.46,1.13Z"/><path class="cls-1" d="M36.88,22.37c-.33-.7-1.34-.45-1.73-1.12-.11,.13-.33,.33-.3,.39,.64,1.19,.3,2.56,.62,4.08,.8-1.19,.79-2.21,.66-3.31,.23,.53,.47,1.06,.74,1.67,.77-.69,.25-1.22,.01-1.71Z"/><path class="cls-1" d="M9.38,12.18c-.09,.13-.17,.21-.19,.29-.1,.55-.72,1.27,.01,1.58,.45,.19,.43-.68,.59-1.08,.14-.35,1.11-.14,.56-.94-.43-.63-.92-1.1-1.66-.71-.8,.42-.96,1.11-.49,1.95,.59-.23,.12-1.29,1.17-1.09Z"/><path class="cls-1" d="M14.84,35.77c-.66-.07-1.16-.2-1.5,.61-.32,.75-.39,1.5-.08,2.13,.31,.61,.99,.36,1.71,.17-1.46-1-.31-1.92-.13-2.91Z"/><path class="cls-1" d="M10.04,40.86c-.93-.71-.63-1.64-.57-2.53,.02-.32,.49-.71-.08-.89-.48-.15-.71,.19-.86,.68-.4,1.31,.03,2.35,.9,3.29,.94-.16,1.01-.25,.61-.55Z"/><path class="cls-1" d="M9.42,41.41l.04,.04s-.02-.03-.04-.04h0Z"/><path class="cls-1" d="M24.17,24.91c-.36-.06-.63,.05-.81,.4-.43,.82,.08,2.61,1.07,3.21-.05-.47-.27-.87-.24-1.34,.03-.51,.09-1,.27-1.49,.08-.22,.24-.69-.29-.78Z"/><path class="cls-1" d="M39.51,16.36c-.17-.07-.35-.4-.57-.06-.06,.09-.27,.18-.07,.33,1.24,.94,1.69,2.41,2.41,4.02,.28-1.78-.66-3.82-1.77-4.29Z"/><path class="cls-1" d="M17.57,20.17c-.19-.19-.44-.14-.66-.04-1.02,.46-1.34,2.71-.53,3.71,.35-1.07,.24-2.29,1.11-3.19,.13-.14,.25-.32,.08-.48Z"/><path class="cls-1" d="M43.18,29.2c-.29,.1-.26,.41-.17,.59,.52,1.13,.38,2.19-.28,3.27,1.41-.69,1.85-2.45,1.01-3.53-.14-.18-.3-.41-.56-.32Z"/><path class="cls-1" d="M3.11,27.17c-1.15,1.41-1.01,3.45,.49,4.83-.67-1.73-.39-3.21-.49-4.83Z"/><path class="cls-1" d="M20.12,42.68c-.58,1.08-.06,1.72,.42,2.3,.37,.44,.95,.41,1.83,.01-1.33-.2-1.81-1.11-2.25-2.31Z"/><path class="cls-1" d="M34.25,46.69c.22,.24,.39-.01,.58-.13,.72-.44,1.41-.89,1.63-1.98-1.05,.15-1.38,1.17-2.21,1.47-.18,.07-.17,.45,0,.63Z"/><path class="cls-1" d="M18.28,24.72c-.2-1.5,.29-2.44,.74-3.43-1.4,.7-1.71,1.8-.74,3.43Z"/><path class="cls-1" d="M26.12,25.26c-.31-.18-.66,.01-.69,.26-.1,1-.43,2.08,.87,3.13-.28-1.21-.82-2.18,.07-2.99,.02-.02-.14-.32-.26-.39Z"/><path class="cls-1" d="M34.72,44.86c-.98-.01-1.86,.97-2.87,.26-.01,0-.23,.2-.22,.26,.05,.16,.15,.36,.29,.45,.75,.5,2.27-.02,2.8-.97Z"/><path class="cls-1" d="M10.94,38.6c-.07-.05-.37,.06-.47,.18-.34,.4-.27,.8-.03,1.27,.23,.45,.44,.87,.98,1.04,.2-.57-.38-.92-.33-1.44,.04-.34,.18-.76-.15-1.04Z"/><path class="cls-1" d="M41.63,30.37v2.79c1.08-1.6,1.03-2.18,0-2.79Z"/><path class="cls-1" d="M41.96,16.9c-.13-.11-.25-.29-.43-.08-.11,.12-.31,.25-.07,.42,.7,.51,.63,1.49,1.54,2.34-.06-1.23-.27-2.06-1.04-2.68Z"/><path class="cls-1" d="M4.33,28.23c.05-.26,.26-.56-.11-.63-.4-.08-.48,.27-.51,.62-.08,.82,.37,1.41,.83,2.23,.38-.95-.34-1.55-.21-2.22Z"/><path class="cls-1" d="M21.44,42.97c.61,1.12,1.13,1.65,2.12,1.22-.76-.07-1.07-.91-2.12-1.22Z"/></g></g></svg>