<?xml version="1.0" encoding="UTF-8"?><svg id="_лой_2" xmlns="http://www.w3.org/2000/svg" viewBox="0 0 158.91 108.98"><defs><style>.cls-1{fill:#fff;}</style></defs><g id="OBJECTS"><g><path class="cls-1" d="M75.42,108.95c2.08-.13,4.13-.87,6.2-1.27,3.4-.67,6.39-2.17,8.73-4.69,2.85-3.07,5.51-6.31,8.48-9.27,1.41-1.4,2.89-2.56,4.61-3.53,2.44-1.37,2.94-2.79,2.65-5.49-.24-2.18-.56-4.39-.48-6.56,.09-2.12,.56-4.28,1.32-6.31,.42-1.11,.86-2.4,.38-3.37-.78-1.6-.28-2.98,.25-4.31,1.13-2.87,.75-5.94,1.37-8.89,.44-2.1,.49-4.29,1.18-6.38,.66-2,1.92-3.67,3.02-5.41,2.26-3.58,4.67-7.02,8.68-8.93,.59-.28,.62-.28,.87,.27,.81,1.81,1.65,3.59,2.36,5.46,.58,1.54,1.63,3.01,2.27,4.62,.58,1.45,.56,2.96,.61,4.5,.08,2.48-1.48,4.29-2.48,6.28-1.2,2.39-2.27,4.85-3.51,7.22-.82,1.57-1.31,3.31-.6,5.09,.48,1.22,1.05,2.41,1.63,3.58,1.33,2.69,3.4,4.44,6.33,5.32,5.22,1.57,10.54,1.87,15.92,1.64,.73-.03,1.47-.25,2.15-.52,4.98-2.02,8.74-5.33,10.68-10.43,.66-1.75,1.05-3.6,.77-5.5-.31-2.17-.97-4.26-1.57-6.36-.56-1.96-1.33-3.79-2.54-5.47-1.61-2.24-3.87-3.7-6.02-5.29-.81-.6-.74-1.1-.47-1.92,.63-1.94,2.36-2.22,3.91-2.76,1.92-.67,3.27-2.22,3.19-4.22-.1-2.4,.28-4.75,.63-7.09,.59-4.02-.09-7.8-1.67-11.45-.83-1.93-1.86-3.79-4.17-4.31-1.81-.41-3.64-.71-5.45-1.11-5.16-1.15-10.2-2.61-14.74-5.45-.97-.61-1.88-1.33-2.88-1.88-2.49-1.37-5.23-2-7.97-2.62-4.5-1.02-9.05-1.74-13.66-2.1-3.81-.29-6.53,1.43-8.52,4.48-.91,1.4-1.29,3.05-1.75,4.64-.12,.43-.14,.83-.87,.63-3.51-.95-7.03-1.87-10.29-3.55-2.11-1.08-4.28-2.04-6.46-2.99-2.24-.98-4.49-.85-6.58-.05-1.67,.64-3.26,1.63-4.93,2.37-3.48,1.54-6.92,3.08-8.53,6.95-.49,1.17-1.41,1.07-2.52,.71-1.73-.56-3.23-1.59-4.92-2.23-6.1-2.3-12.24-4.39-18.7-5.51-3.76-.65-7.42-.76-11.02,.63-2.88,1.11-5.66,2.35-7.17,5.32-1.11,2.18-1.37,4.52-1.71,6.92-.5,3.59,.32,6.86,1.46,10.14,.44,1.29,1.09,2.51,1.1,3.93,.02,3.06,1.74,4.83,4.43,5.97,1.67,.71,3.31,1.55,4.86,2.51,2.82,1.73,5.95,2.16,9.02,1.58,5.82-1.09,10.68-4.25,15.19-7.95,2.41-1.98,4.96-3.68,8.17-4.47,0,.81-.12,1.59,.02,2.33,.78,4.01,1.19,8.06,1.05,12.15-.09,2.57,.12,5.07,1.64,7.69-.98-.41-1.59-.64-2.17-.93-3.66-1.82-7.53-2.77-11.63-2.72-3.57,.04-7.14,.03-10.7-.28-1.01-.09-2.02-.35-3.03-.41-1.73-.11-3.31-.93-5.11-.83-1.59,.09-3.25,.07-4.7,.54-1.73,.57-3.68,1.2-4.38,3.32-.73,2.2-2.39,3.43-4.49,4.2-2.68,.99-4.52,2.69-5.66,5.49-1.11,2.73-1.56,5.57-2.27,8.37-.18,.69-.88,1.04-.82,1.83,.14,1.57-.3,3.08-1.35,4.2-1.23,1.31-1.27,3.03-1.93,4.53-.21,.48-.18,1.25,.06,1.73,1.2,2.4,1.88,5.04,3.39,7.29,.72,1.07,1.58,2,3,1.95,1.74-.07,2.89,.9,3.92,2.1,1.86,2.17,3.54,4.53,6.63,5.12,1.44,.27,2.89,.16,4.32,.12,2.97-.08,5.99,.47,8.9-.28,3.44-.89,6.52-2.32,7.92-6.05,.55-1.46,1.39-2.84,2.36-4.13,1.96-2.58,3.95-5.1,4.7-8.43,.74-3.31,3.14-5.62,5.66-7.73,.84-.7,1.57-1.8,2.65-1.89,1.84-.16,3.56-.69,5.26-1.3,.92-.33,1.16,.01,1.38,.79,.63,2.18-.36,3.93-1.34,5.74-1.89,3.51-4.51,6.7-5.08,10.81-.29,2.09-.76,4.14,.09,6.32,1.24,3.19,3.87,5.45,5.29,8.49,.05,.1,.34,.07,.47,.15,1.76,1.13,3.7,2.03,4.99,3.76,.65,.87,1.42,1.59,2.27,2.26,2.47,1.95,5.36,2.8,8.42,2.6ZM38.05,23.67c2.46,2.16,3.07,4.46,2.42,7.38-.31,1.39-.94,2.66-1.67,3.89-.71,1.21-1.34,2.46-2.01,3.69,1.42-4.85,3.05-9.62,1.26-14.97Zm17.18,.87c.13,1.31,.06,2.61,.16,3.9,.08,.94-.97,.22-1.05,1.15-.69-1.37,.53-2.55-.52-3.51-.98,1.08,.19,3.1-1.66,4.14v-4.34c-.88,1.08-.92,2.31-.85,3.55,.05,.83-.15,1.4-1.08,1.64,.36-1.48,.27-2.96,.11-4.45-.87,1.65-.39,3.66-1.38,5.58-.38-1.84,.66-3.41-.21-5.27-.26,1.46-.41,2.63-.7,3.76-.26,1.01,.17,2.38-1.32,2.88,.27-2.18,1.07-4.27,.47-6.45-1.05,2.88-.32,6.37-3.35,8.89,.88-2.81,1.61-5.3,1.12-8.04-.77,1.11-.38,2.34-.66,3.45-.3,1.14-.56,2.3-.92,3.43-.38,1.18-.97,2.17-2.4,2.63,1.93-3.3,2.62-6.72,2.08-10.37-.64,4.41-1.26,8.8-5.18,11.81,.43-.73,.9-1.44,1.3-2.2,1.37-2.63,2.82-5.21,2.61-8.38-.09-1.4-.39-2.69-1.28-3.66-1.29-1.4-2.28-2.95-3.19-4.59-.1-.18-.32-.28-.47-.41-.4,.22-.25,.47-.21,.73,.08,.52,.82,1.05-.11,1.61-.16,.1,.18,1.14,.39,1.71,1.27,3.5,1.5,6.95,.06,10.51-.67,1.66-1.18,3.44-1.22,5.27-.03,1.32-1.28,.59-1.72,1.2,.15-.98,.7-1.8,.55-2.94-.94,1.03-.93,2.57-2.18,3.22,.38-1.43,1.46-2.65,1.02-4.56-.72,1.63-1.33,3.02-2.17,4.29-.19,.3-.33,.77-.74,.51-.54-.34,.08-.55,.21-.81,.6-1.25,1.38-2.44,1.21-4.27-.78,1.44-1.46,2.58-2.04,3.77-.49,.99-.96,1.82-2.22,.92,.93-1.18,2.17-2.29,2.07-4.39-.73,1.11-1.31,2-1.89,2.88-1.01,1.53-1.65,1.76-3.13,.77-1.99-1.33-4.13-2.35-6.26-3.39-1.65-.81-2.89-1.65-2.96-3.79-.07-2.44-1.26-4.64-1.97-6.95-1.5-4.86-1.23-9.64,1.02-14.21,.93-1.91,2.7-3,4.6-3.87,.17-.08,.33-.2,.47,0,.59,.89,1.74,.98,2.55,2.02-.14-1.63-1.17-1.92-2.15-2.26,3.94-2.38,7.59-1.32,10.98,1.4,2.21,1.77,3.26,4.28,4.97,6.37q.49-1.09-3.76-6.93c.81,.35,1.31,.96,2.21,1.07-.68-1.34-2.06-1.82-3.07-2.95,2.7,.21,3.31,3.12,5.57,3.77-.42-1.37-1.79-1.96-2.58-3.22,2.46,.72,3.06,3.2,4.92,4.42-.11-1.45-1.3-2.27-1.8-3.45,1.48,.71,2.14,2.01,2.67,3.47,.53,1.44,.7,2.96,1.05,4.43,.67-2.13,.17-4.9-1.31-7.21,1,.31,2,.32,2.73,1.05,.66,.66,.59,1.7,1.15,2.55,.46-.87-.08-1.6-.09-2.26,4.19,.23,4.07,3.52,4.49,6.49,.9-1.16,.89-1.62-.09-5.36,1.7,1.51,.99,3.86,2.64,5.18-.05-1.46-.57-2.68-.84-4.02,.64,.32,.59,.33,.9,1.82,.16,.76,.36,1.54,.79,2.23,.39,.63,.63,1.36,1.25,1.86,.43-.89-.26-1.5-.49-2.16-.24-.7-.43-1.42-.67-2.13-.1-.29-.26-.75,.12-.79,.34-.03,.9,.1,.88,.73-.02,.45,0,.89,0,1.41,.93-.21,.24-1.02,.77-1.35,1.29,.18,.9,1.22,.78,2.01-.18,1.15-.51,2.27-.64,3.44,1.16-1.45,1.08-3.31,1.74-5.12,.76,1.03,.08,1.91-.01,2.73-.27,2.48-.32,4.98-.08,7.44Zm14.01-17.17c-1.56,.54-3.16,.28-4.74,.29,1.52-.83,3.16-.32,4.74-.29Zm-9.61,59.19c-.79-.11-.32-.7-.42-1.06-.12-.45,.21-1.02-.38-1.34q-.73,2.81-2.02,3.23c.32-1.29,.18-2.54,.21-3.79-.12-.02-.23-.04-.35-.06-.27,1.31-.54,2.62-.83,4.03-.7-1.34,.8-2.81-.52-4.13-.51,1.6-.49,3.23-1.19,4.65,.07-1.28,.52-2.5,.44-3.8-.03-.42-.01-.94-.52-.93-.53,.01-.28,.57-.3,.88-.08,1.46-.37,2.85-1.22,4.13-.21-1.85,.07-3.81-1.22-5.36,.1,2.37,.85,4.75-.65,6.98-.16-2.07-.19-4.14-1.52-5.88,.24,2.23,.68,4.42,.41,6.68-.27-2.95-1.03-5.65-3.63-7.48,1.7,2.5,2.78,5.18,2.62,8.39-.51-.64,.1-1.52-.8-1.95v2.94c-.45-.91,.06-2.07-.96-2.93-.37,1.05,.56,1.97,.01,2.9-.43-.91-.34-2.13-1.53-2.86,.73,2.23,1.65,4.37-.17,6.42-.22-2.31-.69-4.54-1.96-6.49-1.23-1.88-2.56-3.7-4.76-4.55,1.85,2.7,3.94,5.2,4.88,8.42,.86,2.91,1.12,5.83-.24,8.56-.84,1.68-2.23,3.08-3.38,4.6-.15,.2-.4,.34-.49,.67,.07-3.1-.52-6.02-1.86-8.79,.18,3.65,1.38,7.23,.62,10.93-.2-2.01-.39-4-1.18-5.88-.74-1.78-1.5-3.55-3.23-4.62,2.95,4.6,4.69,9.31,1.88,14.88,.33-3.29-.22-6.12-2.1-8.6,.39,2.29,1.31,4.46,1.11,6.85-.13,1.55-.36,2.92-2.18,3.53-1.56,.52-3.08,1.07-4.75,1.06-2.59-.02-5.18-.13-7.76,.02-3.5,.21-5.78-1.56-7.66-4.19-1.29-1.8-2.77-3.21-5.21-3.23-.89,0-1.66-.53-2.2-1.35-1.49-2.26-2.14-4.92-3.42-7.28-.22-.41-.17-1.14,.04-1.59,.56-1.24,1.06-2.61,1.98-3.55,1.01-1.03,2.57-1.27,4.03-1.46,2.97-.37,5.67,.41,8.3,1.99-1.26-3.25-6.58-4.4-11.37-2.53,.12-1.26,.67-1.79,1.96-1.94,1.93-.23,3.86-.2,5.79-.23,.24,0,.56,.11,.69-.37-2.53-.89-5.05-.21-7.55-.06,.27-.65,.28-.71,1.57-.63,.7,.04,1.31-.31,1.99-.3,.72,.01,1.45,0,2.44,0-1.97-1.38-3.87-.54-5.93-.53,1-1.42,2.53-.8,3.63-1.28l-.03-.37c-.77,0-1.54-.02-2.32,0-.49,.01-.83-.08-.62-.67,.54-1.53,.59-3.18,1.23-4.72,.35-.84,.6-1,1.38-.89,3.66,.49,7.36,.86,10.66,2.74,.79,.45,1.54,.97,2.36,1.38-.68-1.18-1.76-1.88-2.92-2.47-2.43-1.25-5.06-1.83-7.74-2.17-.4-.05-.77-.08-1.16-.25-.51-.21-1.45,.25-1.58-.26-.19-.75,.38-1.48,.96-2.06,.17-.17,.23-.51,.58-.44,.09-.1,.18-.2,.27-.3,1.91-1.45,3.76-2.8,6.47-2.22,1.41,.3,2.94,.17,4.38,.5,2.72,.62,4.67,2.39,6.46,4.35-.12-3.2-5.09-5.71-11.8-5.9,.81-1.22,1.6-1.85,3.17-1.12,1.13,.53,2.5,.55,3.79,.69-1.48-1.24-3.58-.94-5.5-2.16,2.11-.26,3.7,.49,5.76,.71-1.75-1.1-3.38-1.13-4.94-1.4,.46-1.48,3.04-2.79,4.54-2.44,1.48,.34,2.38,1.58,3.69,2.16-.13-1.03-.41-1.42-1.77-2.48,2.07-1.37,4.09,.09,6.15,.41,2.34,.36,4.7,.85,7.03,.68,2.56-.18,4.2,1.07,5.8,2.67,1.87,1.86,3.41,3.97,4.64,6.54,.51-2.58-3.57-7.86-6.67-9.01,1.97-.76,3.24,.47,4.5,1.69,.77,.75,1.51,1.54,2.43,2.48,.07-1.21-.58-1.74-1.16-2.31-.6-.59-1.22-1.17-1.9-1.83,3.37-.4,4.65,.74,6.19,3.41,.91,1.58,1.61,3.28,2.41,4.93,.13-2.98-1.42-5.28-3.16-7.84,2.74,1.39,3.8,3.8,4.93,6.26,.31-1.1,.06-1.8-1.78-5.09,1.68,.87,1.7,2.89,3.13,3.91,0-1.1-.71-1.83-1.05-2.86,1.3,.54,2.5,1.03,3.7,1.55,.25,.11,.31,.38,.41,.65,1.41,3.57,1.74,7.2,.78,10.93-.11,.43-.2,.99-.91,.89Zm3.67-9.79h-.01c.82,1.76,1.34,3.45-.18,5.18-.67,.76-1.1,1.74-1.69,2.7,.44-3.55,.46-6.96-.97-10.48,1.4,.67,2.98,.7,2.85,2.6h0Zm2.7,46.61c-1.19-1.55-2.71-2.49-4.38-3.38-.55-.29-1.96-.35-1.2-1.76,.06-.11-.53-.68-.9-.9-2.83-1.7-4.17-4.57-4.8-7.46-.52-2.42,.25-5.11,1.25-7.52,.26-.62,.98-.32,1.44-.26,1.44,.19,2.9,.41,4.29,.81,2.56,.73,5.18,1.32,7.38,2.97,.99,.74,1.63,1.9,2.89,2.48-1.36-3.13-6.67-6.69-15.47-6.89,.32-1.17,.89-2.22,1.67-3.08,1.5-1.64,2.44-3.57,3.23-5.6,.34-.86,.84-1.41,1.89-1.36,1.27,.06,2.49-.36,3.84-.06,1.22,.27,2.48,.38,3.8,.97-.63-1.1-1.5-1.52-2.47-1.69-1.6-.29-3.19-.82-4.85-.31-.24,.07-.67,.2-.83-.19-.17-.41,.13-.67,.41-.91,1.46-1.26,3.13-1.97,5.08-1.87,2.43,.12,4.9-.36,7.29,.29,1.17,.32,2.29,.86,3.41,1.34,1.09,.46,2.15,.93,3.32,1.22,3.08,.74,4.94,3.03,6.59,5.52,.6,.91,1.4,1.6,2.32,2.42,.18-.92-.24-1.51-.56-2.07-1.53-2.66-3.25-5.15-6.2-6.49-1.11-.51-2.34-.42-3.45-.86-1.05-.42-2.15-.73-3.19-1.19-3-1.33-6.11-1.38-9.33-1.11-2.09,.17-4.04,.42-5.72,1.82-.53,.44-.99,.08-1.1-.56-.04-.25,0-.55,.08-.79,1.36-3.85,3.32-7.15,7.65-8.26,.46-.12,.94-.28,1.33-.54,1.56-1.04,3.29-.63,5-.5-.25-.97-1.07-.34-1.56-.74,.8-1.69,2.66-.38,3.82-1.28-.49-.35-1-.07-1.62-.31,1.77-.63,3.39-1.23,5.03-1.78,3.73-1.26,6.61-3.65,8.91-6.76,1.07-1.45,2.47-.87,3.74-.72,1.42,.17,2.84,.46,4.28,1.03-.79-1.29-1.63-1.54-6.74-2.11,.29-.65,.58-1.28,.85-1.91,.09-.21,.15-.48,.44-.34,.25,.11,.39,.26,.12,.59-.52,.61,.06,.68,.45,.67,2.23-.03,4.45,.02,6.59,.81,.17,.06,.48,.11,.53-.22,.03-.26-.17-.45-.37-.51-.88-.27-1.73-.71-2.91-.58,1.65-1.72,1.7-3.64,1.25-5.71,.68-.13,1.09,.38,1.6,.69,1.21,.75,2.36,1.56,3.37,2.57,.18,.18,.33,.7,.71,.36,.37-.33-.06-.71-.22-.9-.95-1.07-1.98-2.08-3.29-2.74-.58-.29-1.17-.57-1.84-.9,1.75-.45,1.74-.42,3.18,.04,1.12,.36,2.06,1.17,3.23,1.4,.23-.44-.3-.49-.29-.82,.3-.02,.61-.04,.98-.06-.07-.14-.1-.25-.17-.34-.69-.92-1.77-1.33-2.63-2.04-.23-.19-.68-.23-.72-.57-.04-.33,.41-.27,.61-.43,.45-.38,.65,.12,.86,.34,.87,.92,1.82,1.73,3.02,2.57-.26-1.47-1.56-1.95-2.22-2.9-.23-.33-1.04-.24-.75-.9,.22-.51,.79-.36,1.22-.33,1.88,.14,3.16,1.32,4.33,2.62,.23,.26,.31,.64,.76,.61,.02-2.11-2.14-3.92-4.92-4.14,1.51-1.43,1.34-2.13,4.62,1.14-.11-1.27-.23-1.43-2.29-2.99q.55-.08,2.87,1.79c.42-.5-.16-.94-.15-1.5,.6,.36,1.02,.79,1.25,1.46q.55-1.1-1.41-3.17c.73-.45,.74-.45,1.52,.47,.49,.57,.97,1.16,1.61,1.6,.22-1.21-.76-1.7-1.16-2.51-.11-.23-.64-.34-.19-.71,.28-.23,.6-.25,.85,.02,.6,.64,1.17,1.31,1.8,2.03,.3-1.16-.58-1.83-.93-2.68,.14-.12,.27-.25,.41-.37,.65,.95,1.3,1.9,1.95,2.85l.47-.42c.1-.59-.25-1.01-.67-1.37-.41-.35-.86-.64-1.49-1.1,2.33-.7,2.23,1.26,3.09,2.11,.53-.86,.05-1.49-.22-2.06-.31-.65-.12-.94,.47-1.04,.49-.09,1.15-.03,1.05-.71-.08-.54-.55-.81-1.18-.47-.37,.2-.46-.09-.42-.41,.07-.56-.17-1-.48-1.48-.91,.57,.69,2.44-1.34,2.34-.91-.04-1.98,1.57-2.74-.54,.28,1.61-.73,1.95-1.8,2.33-.4-.84-.28-1.87-.84-2.65-.94,.67-.23,1.47-.09,2.1,.18,.85,.2,1.35-.88,1.52,0-.71-.03-1.41,0-2.11,.04-.68-.18-1.27-.71-2.22-.22,1.76,.01,3.17-.35,4.53-.11,.43-.18,.91-.61,.82-.44-.09-.17-.56-.1-.91,.25-1.26,.2-2.52-.12-3.77-.9,1.98-.3,4.36-1.82,6.34-.34-1.41,.76-2.69-.25-3.97-.36,1.42-.68,2.73-1.02,4.08-.53-.53,.12-1.01-.07-1.92-1.21,2.09-2.03,4.03-3.31,5.7,.34-.79,.14-1.56,.06-2.36-.9,1.05-.58,2.69-1.89,3.63-.44-1.22,.19-2.49-.48-3.65-.82,1.41,.71,3.33-1.27,4.56,0-1.38-.13-2.51-.46-3.64-.73,.57-.38,1.36-.38,2.02,.01,1.19,.1,2.34-1.65,2.34,.67-1.66,.51-3.45,.54-5.23,.02-.82-.42-1.42-.81-2.06-.13-.22-.42-.23-.62-.14-.35,.15-.04,.35,0,.53,.9,3.66-.29,6.98-1.58,10.31-.64,1.67-1.27,3.34-2.32,4.84,.11-.66,.21-1.32,.07-2.07-.53,.53-.67,1.16-.81,1.78-.53,2.4-2.06,4.02-4.08,5.28-3.5,2.16-7.27,3.53-11.34,4.1-3.82,.54-7.57,.25-11.23-.86-2.76-.83-4.18-3.14-4.37-6-.14-2.03-.14-4.06-.26-6.08-.07-1.23,.28-1.74,1.52-1.51,.17,.03,.36,0,.57,0-.03-.43-.27-.59-.59-.53-1.69,.28-1.8-.78-1.75-2.01,.02-.4,0-.81,0-1.26,2.51,.65,5.03,.84,7.45,2.09-.58-1.31-1.2-1.72-3.58-2.27-1.36-.32-2.76-.48-4.14-.89,1.78-.54,3.64-.09,5.43-.41-.06-.59-.46-.42-.73-.43-.73-.02-1.45,0-2.18,0-2.95,0-2.94,0-3.07-3-.14-3.24-.42-6.49-.41-9.73,0-1.45-.32-3.16,.5-4.33,.87-1.25,1.07-2.66,1.67-3.95,.65-1.4,1.91-1.56,3.12-1.89-.3-.78-.98-.37-1.52-.62,.95-1.11,1.75-2.24,3.56-1.84,1.08,.24,2.26,.11,3.39,.03,4.34-.31,7.74,1.82,11.11,4.12,2.56,1.75,3.98,4.21,4.73,7.14,.09,.36,.18,.71,.78,.7,.28-3.42-1.21-6.05-3.68-8.13-2.59-2.18-5.54-3.77-8.82-4.73-.45-.13-.97-.05-1.56-.37,2.15-.26,4.08,.09,6.03,.21-2.54-1.39-5.35-1.37-8.23-1.39,2.91-2.46,6.07-.81,9.25-.78-.67-.83-1.59-.6-2.26-.91-.77-.36-1.7,.19-2.32-.63,1.32-.59,2.52,.21,3.85,.26l-.69-.46c.16-.1,.23-.18,.28-.16,3.67,1.09,6.86,3.24,10.35,4.73,.36,.15,.72,.34,1.1,.42,2.66,.55,4.79,2.08,6.66,3.87,1.83,1.75,3.02,4,3.69,6.47,.56,2.06,1.08,4.14,1.65,6.36,.84-3.17-1.32-11.63-5.91-14.63,2.91,.33,3.34,.63,5.96,4.23,.23,.32,.36,.74,.97,.82-.15-1.43-1.38-2.27-1.86-3.74,2.16,1,4.54,.87,6.08,3.02,1.29,1.81,3.36,3.03,4.1,5.32-.1-3-2.44-4.5-4.09-6.48,2.11,1.65,5.32,2.26,5.09,6.28,1.31-2,.4-3.94-2.11-5.62,.95-.13,1.25,.02,1.74,.26,.67,.33,.86,1.01,1.3,1.49,.43,.46,.22,1.41,1.27,1.71-.37-1.43-.8-2.59-1.98-3.49,.63-.23,1.24-.3,1.72-.95-4.85,.27-9.06-1.5-13.33-2.98v.02c-.23-.02-.46-.03-.68-.08-1.12-.25-1.46-.72-.91-1.92,.7-1.55,1.1-3.21,2.18-4.63,1.48-1.95,3.29-2.93,5.75-3,2.8-.07,5.45,.77,8.18,1.09,3.6,.42,7.11,1.27,10.6,2.19,2.85,.75,5.17,2.42,7.51,4.09,2.3,1.65,5.06,2.22,7.62,3.25,3.33,1.34,6.88,1.85,10.39,2.43,1.96,.32,3.21,1.34,4.01,3.02,2.13,4.47,2.41,9.14,1.51,13.97-.3,1.58-.33,3.23-.35,4.84,0,.77-.35,1.36-.61,2.01-.11,.28-.37,.54-.75,.47-.28-.05-.33-.28-.3-.52,.04-.29-.15-.65,.22-.85,.28-.16,.94,.28,.82-.5-.04-.28-.28-.33-.52-.33-.49,0-1.02-.14-1.33,.42-.41,.74-.48,1.44,.42,2.05-1.59,.72-3.27,.99-4.24,2.48-.28,.43-.2-.17-.33-.23-.25-.12-.56-.2-.73,.06-.13,.21,.15,.38,.26,.56,.09,.15,.71-.02,.3,.45-.23,.26-.43,.19-.68-.02-1.13-.89-2.5-1.23-3.83-1.65-.28-.09-.53-.06-.74,.36,1.56,.54,2.97,1.37,4.38,2.19,.23,.13,.7,.11,.5,.61-.2,.49-.49,.11-.76,.1-.95-.03-1.9-.01-3.1-.01,1.67,1.03,3.67,.55,4.98,2.16,1.09,1.34,2.91,2.02,4.04,3.52-2.12-1.26-4.42-.72-6.65-.78-.39-.01-1.18-.41-1.14,.42,.04,.73,.81,.38,1.21,.35,2.73-.16,5.32,.21,7.72,1.64,.67,.4,1.28,.74,1.41,1.65-.79-.16-1.56-.32-2.32-.48-.3-.06-.64-.22-.7,.29-.05,.36,.15,.42,.47,.48,.73,.13,1.44,.44,2.17,.5,1.22,.08,1.26,.95,1.53,1.87-3-1.45-2.89-2.25-9.25-.93,.25,.56,.6,.42,1.09,.31,2.83-.65,5.56-.54,7.95,1.4,.7,.57,1.3,1.17,1.16,2.39-2.13-1.17-4.26-1.86-6.61-1.1,2.59-.08,4.87,.73,6.93,2.24,.29,.22,.35,.51,.19,.84-1.59-.5-3.04-1.46-4.81-1.41,1.04,.96,2.33,1.46,3.57,2.02,1.94,.88,1.99,.9,1.76,3.33-1.14-1.82-2.79-2.7-4.65-3.37-1.24-.44-2.36-.05-3.52,.11-.16,.02-.45,.17-.32,.44,.2,.4,.63,.42,.95,.3,.78-.28,1.5-.25,2.33-.08,2.07,.45,3.56,1.63,4.8,3.25,.29,.38,.3,.73,.16,1.12-1.73,5.14-5.19,8.72-10.26,10.45-2.71,.93-5.66,.59-8.55,.36-2.59-.2-5.08-.87-7.63-1.23-4.36-.62-6.35-3.7-7.78-7.39-.14-.37-.23-.76-.31-1.14-.16-.7-.93-1.56,.48-1.88,.07-.02,.06-.32,.11-.49,.9-3.21,3.23-4.94,6.23-5.93,.42-.14,.81-.23,1.16-.56-1.27-.45-2.46-.08-5.46,1.67,0-1.44,.89-2,1.94-2.53,.96-.49,2.02-.85,2.86-1.79-1.28-.21-2.12,.61-3.31,.95,.97-1.37,1.07-3.21,3.11-3.4-.31-.63-1.1,0-1.08-.74,.01-.49,.37-.79,.81-.99,1.94-.87,3.93-1.58,6.09-1.63,1.08-.03,2.18,.08,3.47-.68-3.56-.37-6.71-.25-9.62,1.54-.32-1.3-.27-1.2,.78-1.71,1.74-.85,3.52-1.59,5.26-2.46-2.23-.04-4.02,1.09-5.85,2.08q-.1-.76,2.48-2.67c-.48-.53-.92,.07-1.6,.03,1.28-1.14,2.76-1.27,4.13-1.55,.73-.15,1.45-.46,2.24-.33,.29,.05,.69-.09,.66-.46-.02-.24-.35-.36-.66-.34-2.57,.2-5.24,.08-7.15,2.32-.13,.15-.27,.55-.6,.18-.26-.28-.28-.59-.05-.85,.59-.68,1.26-1.31,2.13-1.61,.36-.13,.8-.24,.67-.65-.13-.41-.65-.23-.95-.18-.94,.16-1.67,.75-2.28,1.52-.83-1.69-.68-2.06,.94-2.63,1.43-.5,2.85-1.01,4.44-1.57-.74-.58-1.29-.22-1.85-.07-1.44,.39-3.06,.31-4.14,1.64-.37,.45-.57,.27-.84-.21-.89-1.59-.95-1.63,.57-2.55,1.93-1.16,3.98-2.03,6.29-2.16,.75-.04,1.43,.63,2.19,.16-1.8-1.98-5.75-.99-10.22,2.21q-.03-1.03,3.13-2.78c-.22-.36-.42-.4-.87-.21-.69,.29-1.38,.54-2,.96-.26,.18-.65,.72-.94,.2-.22-.38,.3-.61,.63-.8,.85-.46,1.71-.92,2.55-1.4,.16-.09,.46-.21,.31-.49-.14-.25-.36-.37-.67-.19-.84,.49-1.75,.87-2.51,1.46-.67,.52-.94,.13-1.29-.3-.46-.56-.04-.73,.38-1.05,.78-.6,1.84-.82,2.56-1.86-1.3,.21-2.27,.63-3.14,1.33-.1,.08-.43,.42-.62,.1-.12-.2-.09-.45,.27-.62,.59-.28,1.15-.64,1.72-.98,1.51-.9,2.29-2.2,2.67-3.86,.27-1.14-.26-1.93-.96-2.69-.11-.12-.21-.43-.51-.18-.25,.21-.09,.37,0,.56,.33,.72,.81,1.4,.45,2.4-.44-1.28-1.16-2.26-2.13-3.04-.23-.18-.37-.74-.77-.43-.63,.48,.18,.7,.33,.9,.58,.78,1.21,1.51,1.61,2.42,.66,1.48,.34,2.37-1.09,3.02-.96,.43-1.89,.92-2.86,1.4-.3-1.92-.43-2.11-1.75-2.52,.34,.73,.66,1.35,.86,2.01,.3,.97,.02,1.36-.86,1.75,.09-1.69-.44-3.02-2.01-3.74,.59,.96,1.16,1.94,1.4,3.04,.13,.57,.27,1.37-.62,1.51-.68,.11-.54-.6-.73-.99-.22-.45-.27-1.08-1.01-1.14-.21,1.03,.72,1.9,.42,3.02-.23-.35-.41-.62-.6-.92-.23,.33-.17,.65-.11,.94,.05,.25,.33,.53-.06,.66-.42,.14-.46-.23-.53-.54-.06-.25-.21-.48-.26-.74-.33-1.87-2.16-2.19-3.3-3.26-.1,.44-.02,.87,.31,1,1.94,.75,1.88,2.81,2.83,4.2,.22,.32,.07,.48-.11,.68-.59,.67-1.17,1.34-1.78,2.03-.25-.47-.52-.92-1.12-1.14-.28,.59,.14,1,.32,1.45,.18,.46,.24,.93-.2,1.22-.53,.35-.6-.22-.84-.51-.24-.28-.6-.45-1-.73,0,.86,.59,1.29,.9,1.83,.25,.44,.05,.7-.12,.97-.29,.47-.49,0-.74-.12-.74-.36-1.5-.69-2.25-1.04-.28-.13-.54-.3-.75,.1-.17,.34,.09,.52,.3,.64,.53,.31,1.07,.65,1.65,.82,1.24,.37,1.06,.97,.47,1.81-.91,1.3-1.6,2.72-2.08,4.24-.1,.33-.16,.68-.24,1.03-.66-.29-1.31-.62-2.19-.6,1.07,.96,2.63,1.67,1.56,3.53-.95-.41-1.14-1.77-2.21-2.22-.3,.94,.4,1.5,.88,2.05,.85,.96,1.47,1.9,.71,3.43-1.55-3.69-4.05-6.25-7.99-7.48,.55,1.42,1.87,1.68,2.83,2.34,2.72,1.87,4.03,4.66,5.26,7.38-.51-.4-1.08-.83-1.62-1.27-.18-.14-.36-.38-.56-.21-.22,.19-.17,.5,0,.74,.29,.39,.52,.91,.91,1.13,1.12,.62,.92,1.59,.84,2.67-1.37-1.01-2.31-2.46-3.68-3.36l-.22,.25c1,1.23,1.94,2.52,3.02,3.67,.66,.7,.34,1.38-.04,1.79-.36,.39-.87-.19-1.2-.53-.88-.92-1.94-1.48-3.39-1.96,1.34,2.03,4.58,2.18,4.14,5.35-2.16-3.17-5.12-4.69-8.97-4.98,.54,.86,1.35,.94,1.97,1.13,3.49,1.07,5.51,3.68,7.23,6.64,.18,.31,0,.57-.1,.87-.96,3.11-1.73,6.28-1.41,9.56,.15,1.46,.15,2.93,.47,4.38,.53,2.4-.68,3.98-3.73,5.15-.08-2.59-1.18-4.8-2.58-6.89-.23,1.07,.48,1.87,.7,2.81,.24,1.02,.66,2,.97,3,.43,1.35,.04,2.38-1.31,3.06-1.34-2.24-1.04-5.16-2.83-7.27,1.02,2.52,.26,5.49,2.06,7.81,.61,.78-.5,.85-.7,1.76-.65-2.38-1.55-4.16-3.13-5.84,.07,1.32,.76,2.15,1.2,3.05,1.33,2.73,1.33,2.7-.78,4.86-2.14,2.19-3.88,4.75-6.35,6.79-.67-1.52-1.02-3.2-2.25-4.72,.03,1.52,.83,2.55,1.1,3.75,.34,1.52,.46,1.49-.78,2.3-.16-.95-.39-1.86-1.08-2.76-.27,.98,.26,1.63,.44,2.34,.09,.37,.21,.68-.3,1.01-1.27,.82-1.36,.85-1.69-.59-.44-1.89-1.01-3.74-1.87-5.48-.11-.22-.13-.64-.66-.63,.56,1.9,1.14,3.77,1.66,5.65,.14,.51,.12,1.06,.23,1.58,.12,.52-.2,.53-.55,.61-.72,.15-1.43,.33-2.17,.51-.25-3.02-1.62-5.65-2.8-8.34-.14-.31-.29-.7-.61-.57-.47,.19-.12,.55-.03,.88,.64,2.29,1.68,4.44,2.31,6.74,.3,1.1,.33,1.35-.96,1.7-2.62,.71-5.1,.72-7.64-.13-1.97-.66-3.59-1.87-4.81-3.46Zm0-44.34c-.22,.18-.23-.07-.26-.24-.16-.86-.3-1.72-.77-2.5-.11-.18-.19-.57,.19-.65,.18-.04,.55-.04,.55,.24,0,.96,.71,1.74,.6,2.63,.39,.55-.19,.42-.31,.52Zm.6-3.21c.08-.09,.21-.13,.24-.16,.6-.06,.65,.4,.75,.68,.17,.49,.25,1.01,.32,1.53,.02,.15,.44,.34,.01,.48-.24,.08-.5,.13-.74,.09-.19-.03-.72-2.48-.59-2.63Zm2.59,2.05c-.32,.14-.42,.2-.51-.21-.14-.66-.36-1.3-.55-1.94,.13-.03,.27-.06,.4-.09,.3,.56,.59,1.13,.9,1.68,.19,.33,.06,.42-.25,.56Zm.32-1.97c1.04,.14,.79,.89,1.02,1.34,.01,.03-.18,.16-.28,.24-.22-.48-.45-.96-.74-1.59Zm24.83-14.97c-.19,.24-.35,.53-.58,.71-.15,.11-.46,.14-.62,.06-.29-.14-.09-.35,.02-.55,.29-.53,.68-1.58,.82-1.55,1.24,.29,1.97-1.4,3.38-.64-1.54,.04-2.27,1.01-3.02,1.96Zm3.06-.29c-.19,1.23-.71,1.89-1.57,2.15-.52,.16-1.07-.28-1.38-.6-.37-.38,.3-.63,.53-.9,.32-.38,.68-.74,1.1-.99,.26-.15,.54-.67,.88-.3,.2,.22,.46,.56,.44,.65Zm3.94-5.25c.18-.13,.3-.59,.72-.23,.65,.56,1.36,1.05,2.05,1.58l-.06,.14c-.85-.36-1.69-.74-2.54-1.08-.26-.1-.43-.22-.16-.41Z"/><path class="cls-1" d="M10.85,58.66c2,.01,3.95,.3,5.79,1.12,.35,.16,.68,.4,1.13,.1-.5-.6-1.13-.96-1.83-1.23-1.94-.76-3.98-.78-6.01-.83-.09,.1-.18,.2-.27,.3,.18,.67,.72,.55,1.2,.55Z"/><path class="cls-1" d="M93.65,67.35c-3.03-4.23-7.53-5.74-12.32-6.82-1.34-.3-2.67-.19-3.99-.36-3.33-.43-6.62-.28-9.37,2.29,3.12-1.05,6.22-1.48,9.57-1.23,3.29,.25,6.33,1.11,9.4,2.09,3.23,1.03,5.06,3.99,7.83,5.66-.09-.79-.75-1.1-1.12-1.62Z"/><path class="cls-1" d="M76.09,103.83c-.02,.38,.07,.8,.51,.76,.41-.04,.28-.49,.3-.79,.01-.18,0-.36,0-.54h-.02c0-.36,.07-.74,0-1.08-.85-3.89-2.74-7.19-5.84-9.7-1.08-.88-1.72-2.27-3.19-2.7-2.64-.77-5.14-2.06-7.89-2.43-1.23-.16-2.5-.73-3.82-.13-.48,.22-.9,.41-.7,.9,.17,.42,.67,.26,1.04,.08,.56-.27,1.18-.19,1.73-.11,2.39,.36,4.73,.93,7.01,1.74,1.71,.61,3.35,1.1,4.48,2.77,.51,.75,1.19,1.57,2.05,2.09,1.23,.74,2.05,1.9,2.63,3.11,.9,1.89,1.84,3.82,1.7,6.03Z"/><path class="cls-1" d="M78.95,39.73c.53-.62,.72-1.6,1.72-1.77,.27-.05,.57-.2,.49-.47-.1-.33-.48-.45-.8-.32-.8,.34-1.42,.91-1.75,1.73-.13,.32-.03,.74-.55,.92-.81-3.58-3.57-5.61-6.32-7.54-4.06-2.85-8.73-3.54-13.59-3.31-.35,.02-.77,.11-.76,.39,.01,.4,.45,.45,.83,.44,1.44-.02,2.88-.06,4.29,.27,2.01,.48,4.09,.68,6,1.54,3.78,1.7,6.88,4.12,8.68,8,.46,1,1.04,.95,1.76,.12Z"/><path class="cls-1" d="M72.42,17.54c1.88,.59,3.95,.88,5.58,1.88,2.93,1.8,4.91,4.59,6.25,7.77,.91,2.15,1.52,4.43,2.98,6.33,.18,.23,.22,.68,.59,.54,.51-.19-.03-.5-.03-.77,0-.17-.06-.35-.13-.5-1.93-4.03-3.33-8.3-6.37-11.77-2.51-2.87-5.71-3.7-9.3-4.1,.06,.59,.25,.57,.42,.63Z"/><path class="cls-1" d="M71.46,48.63c-.27-5.28-2.95-8.56-8.1-10.02-.96-.27-2.2-.92-3.33-.02,.42,.53,.95,.64,1.54,.76,1.49,.32,2.97,.74,4.28,1.59,3,1.96,4.47,4.8,4.78,8.29,.05,.61,.27,1.47,.7,1.4,.71-.12,.28-.83,.14-1.33-.06-.21,0-.45-.01-.68Z"/><path class="cls-1" d="M137.93,71.27c.07,.24,.19,.4,.45,.44,.23,.03,.25-.1,.3-.3,.62-2.14,1.67-2.85,3.89-2.65,.23,.02,.53,.38,.65-.05,.12-.41-.26-.43-.56-.51-2.39-.65-4.53-.14-6.49,1.33-1.32,1-.86,2.98,.69,3.55,2.63,.96,5.18,.63,7.59-.87,.53-.33,.77-.72,.45-1.14-.32-.41-.72-.01-.99,.28-1.42,1.49-5,2-6.92,.77-.95-.61-.9-1.08-.24-1.77,.37-.39,.8-.66,1.45-.78-.1,.62-.41,1.15-.25,1.73Z"/><path class="cls-1" d="M142.54,65.15c1.2,.08,2.03,1.03,3.4,.94-1.84-2.48-4.43-2.01-6.54-1.58-4.47,.91-8.2,3.42-11.42,6.66-.56,.56-.74,1.19-.69,1.96,.02,.34,.12,.68,.44,.69,.22,0,.42-.31,.39-.63-.11-.97,.46-1.6,1.13-2.16,.81-.68,1.63-1.37,2.51-1.96,3.26-2.2,6.58-4.18,10.78-3.92Z"/><path class="cls-1" d="M132.58,62.74c-.9,.61-2.09,.89-2.69,2.3,.72-.42,1.22-.67,1.68-.98,2.31-1.54,4.82-2.3,7.58-1.78,2.71,.51,5.45,.83,8.19,.97,1.58,.08,3.06,.19,4.49,.96,.42,.23,.97,.69,1.59,.34,.07-.66-.52-.68-.86-.89-1.92-1.15-4.11-1.06-6.21-1.15-2.24-.1-4.42-.45-6.62-.8-2.5-.41-4.94-.46-7.15,1.04Z"/><path class="cls-1" d="M87.76,56.31c2.75,.58,5.17,2.12,8.18,3.09-2.98-3.95-14.39-5.77-16.95-3.48,2.94,.12,5.88-.22,8.77,.39Z"/><path class="cls-1" d="M78.65,58.07c1.62,.23,3.26,.4,4.89,.59,2.11,.25,4.18,.73,5.88,2.06,1.39,1.08,2.74,2.24,4.27,3.11,1.09,.63,1.68,1.76,2.71,2.42-.31-1.25-.92-2.19-2.02-2.83-1.25-.73-2.52-1.49-3.56-2.48-2.5-2.37-5.53-3.17-8.82-3.36-1.08-.06-2.17-.01-3.25-.08-.27-.02-.62-.41-.76,.05-.13,.46,.43,.49,.67,.52Z"/><path class="cls-1" d="M71.16,99.91c-1.66-2.77-3.8-4.99-6.9-6.13-.77-.28-1.48-.75-2.26-.83-.33,.12-.78-.16-.84,.32-.03,.27,.24,.43,.51,.54,.36,.15,.7,.38,1.06,.52,2.69,1.09,5.13,2.45,6.68,5.09,.67,1.14,1.5,2.22,2.52,3.13,.27,.24,.57,.36,.83,.12,.28-.26-.1-.49-.21-.68-.43-.71-.95-1.37-1.38-2.08Z"/><path class="cls-1" d="M72.8,23.79c1.24,.25,2.19,1.27,3.53,1.3,.03-.58-.42-.75-.75-1.02-1.97-1.65-4.42-1.4-6.72-1.61-2.6-.24-5.23,.25-7.82-.28-.29-.06-.85-.23-.94,.19-.11,.52,.43,.5,.81,.65,1.19,.46,2.42,.48,3.66,.52,2.74,.1,5.5-.3,8.23,.25Z"/><path class="cls-1" d="M89.29,90.31c-.19,1.36-.35,2.75,.34,4.04,.12,.23,.36,.62,.73,.47,.39-.16-.04-.57,.14-.84-.96-.93-.34-2.08-.49-3.17,1.39,.48,2.44,1.54,2.68,2.64,.32,1.42-.67,2.44-2.13,2.25-.36-.05-.78-.15-1.15,.18,.31,.77,1.04,.77,1.61,1.02-.35,.59-.77,.47-1.25,.17-.16-.1-.5-.1-.57,.17-.06,.23-.11,.5,.27,.64,.34,.13,.8,.45,.99,.22,.83-.99,2.32-1.25,2.8-2.59,.83-2.29-.68-5.1-3.04-5.74-.59-.16-.89,.32-.92,.53Z"/><path class="cls-1" d="M90.5,93.99h0s.03,.03,.04,.04l-.04-.04Z"/><path class="cls-1" d="M121.14,8.52c1.26,1.23,2.69,2.05,4.52,2.25,1.49,.16,3.01,.24,4.14,1.68,.67,.86,1.78,1.54,3.13,1.38-1.4-.8-2.67-1.75-3.71-2.96-.39-.46-.84-.67-1.5-.7-2.65-.15-5.05-.87-6.75-3.14-.42-.56-1.04-1-1.64-1.37-.74-.45-1.56-.59-2.4,0,1.9,.28,2.99,1.66,4.22,2.86Z"/><path class="cls-1" d="M86.22,40.89c-1.61-1.31-3.12-1.36-4.56-.17-.81,.67-1.46,1.48-2,2.36-.95,1.55-.77,3.03,.58,4.17-.19-.96-.55-1.67-.21-2.43,.59-1.33,1.44-2.44,2.57-3.36,.57-.46,1.12-.48,1.83-.25,1.15,.38,1.72,1.4,2.59,2.08,.24,.18,.12,1,.8,.51,.55-.39,.07-.75-.07-1.04-.36-.73-.9-1.36-1.53-1.88Z"/><path class="cls-1" d="M130,30.14c-.09,.22-.39,.51,.02,.64,.19,.06,.58-.08,.68-.25,.17-.29,.41-.56,.42-.96,.04-1.88-.1-3.75-1.1-5.39-1.15-1.88-2.96-2.68-5.11-2.83-.55-.04-1,.29-1.02,.68-.02,.49,.55,.43,.94,.41,1.22-.05,2.22,.5,3.18,1.15,.33,.22,.86,.77,.81,.84-.61,.91,.4,1.35,.43,2.28,.17-.43,.25-.61,.47-1.15,.03,1.73,.92,3.1,.28,4.57Z"/><path class="cls-1" d="M129.68,16.68c-1.72-.02-3.34-.6-4.8-1.66-1.17-.85-1.78-2.25-3.17-2.86,1.43,3.15,3.81,4.96,7.31,5.42,1.35,.18,2.88-.09,4.02,1.04,.6,.59,1.06,1.27,1.53,1.96,.19,.27,.57,.47,.88,.34,.49-.19,.08-.6-.02-.75-1.37-2.05-3.09-3.44-5.76-3.48Z"/><path class="cls-1" d="M95.97,70.79c.4,1.24,1.25,2.22,1.94,3.29,1.32,2.04,3.51,3.57,3.69,6.29,.06,.88,.13,1.8,.41,2.63,.33,.99-.05,2.13,.54,2.99,1.48-6.26-2.37-10.55-5.61-15.07-.25-.35-.58-.39-.96-.13Z"/><path class="cls-1" d="M85.72,53.21c1.18,0,2.37,.09,3.52-.09,.91-.14,1.72-.16,2.63,.02,1.85,.36,3.25,1.45,4.75,2.46,.96,.64,1.75,1.66,3.16,1.73-.55-.97-1.43-1.27-1.99-1.89-3.36-3.77-7.7-3.58-12.13-3.03-.31,.04-.54,.24-.55,.5-.02,.42,.36,.3,.6,.3Z"/><path class="cls-1" d="M141.14,75.29c-2.75-.25-5.4-.75-7.95-1.84-1.47-.63-1.75-1.26-.7-2.52,.22-.27,.3-.4,.11-.63-.3-.36-.45,.02-.62,.16-.72,.59-1.02,1.37-.84,2.26,.15,.75,.81,1.02,1.47,1.17,2.42,.55,4.66,1.76,7.2,1.93,2.26,.15,4.46,.41,6.46-1.07,.67-.5,1.38-.84,1.13-1.93-1.87,1.65-3.77,2.69-6.25,2.46Z"/><path class="cls-1" d="M89.95,12.03c.62,1.2,1.08,2.48,1.69,3.7,.69,1.39,1.15,2.81,1.39,4.36,.27,1.75,.21,3.55,.78,5.25,.16,.49,.24,1.12,.89,1.18-.44-5.47-1.07-10.84-4.71-15.38-.31,.18-.28,.44-.04,.9Z"/><path class="cls-1" d="M79.16,36.34c-.73-4.32-8.87-10.33-12.27-9.49,5.36,1.55,9.27,4.91,12.27,9.49Z"/><path class="cls-1" d="M71.43,36.39c-1.19-.92-2.41-1.74-3.77-2.39-.38-.18-.78-.23-.92,.16-.16,.43,.29,.42,.59,.56,.63,.28,1.23,.66,1.81,1.05,2.29,1.52,4.52,3.11,5.31,5.97,.5,1.81,.98,3.62,1.53,5.66,.2-.35,.38-.51,.35-.64-.75-3.87-1.49-7.73-4.91-10.37Z"/><path class="cls-1" d="M84.83,82.11c-1.35-3.78-5.43-7.7-9.03-8.9-.54-.18-1.08-.19-2.02,.16,4.86,1.81,8.4,4.73,11.05,8.75Z"/><path class="cls-1" d="M152.88,33.88c-.83-.44-1.56,0-2.46,.35,.35-.62,.64-.96,1.21-.9,.18,.02,.38,.01,.43-.21,.05-.26-.15-.45-.34-.52-.64-.26-1.32-.12-1.73,.35-.8,.91-1.63,1.87-1.42,3.24,.33,.16,.41-.45,.8-.22-.11,.83-.71,1.7,.13,2.57,.24-.75,.41-1.45,.69-2.12,.46-1.08,1.15-1.9,2.49-1.7,.23,.03,.53,.38,.64-.03,.08-.31-.09-.62-.44-.81Z"/><path class="cls-1" d="M72.24,81.53c4.19,2.07,7.29,5.47,10.56,8.65-1.57-3.58-6.82-7.97-10.56-8.65Z"/><path class="cls-1" d="M98.54,81.74c.44-3.73-3.9-9.89-7.52-10.4,4.06,2.35,5.87,6.32,7.52,10.4Z"/><path class="cls-1" d="M142.03,57.22c-2.61-.19-5.26-.73-7.77,.57-.31,.16-.98,.01-.82,.53,.16,.53,.66,.28,1.12,.12,2.19-.73,4.41-.72,6.71-.4,1.45,.21,3.01,.3,4.58-.17-.53-.61-1.1-.56-1.67-.58-.72-.03-1.43-.02-2.15-.07Z"/><path class="cls-1" d="M112.18,14.82c-.17,.03-.37,.01-.39,.25-.02,.27-.02,.48,.34,.6,.7,.24,1.35,.62,2.05,.87,1.5,.54,2.44,1.42,2.59,3.15,.04,.47-.18,1.44,.96,1.69,.02-1.16,.2-2.24-.08-3.29-.39-1.48-3.89-3.53-5.47-3.27Z"/><path class="cls-1" d="M129.53,14.94c-.42-.7-1.06-.41-1.53-.56-2.3-.76-3.8-2.55-5.56-4.01-1.35-1.12-2.65-2.3-4.72-2.37,.25,.3,.35,.54,.53,.62,2.7,1.31,4.72,3.55,7.16,5.2,1.14,.77,2.42,1.71,4.11,1.12Z"/><path class="cls-1" d="M115.56,9.15c-1.69-1.42-3.26-2.42-4.99-3.01-2.39-.82-4.87-.16-7.31,0-.46,.03-.4,.44-.2,.77,.57-.04,1.15-.1,1.7-.12,2.54-.11,5.16-.67,7.51,1,.85,.6,1.81,1.2,3.29,1.37Z"/><path class="cls-1" d="M103.08,6.94s-.01-.03-.02-.04h-.01l.04,.04Z"/><path class="cls-1" d="M148.27,23.14c.02-.53-.37-.4-.66-.43-1.4-.14-2.78,.1-4.15,.29-3.02,.42-4.9,2.45-6.72,4.87,1.21,.04,1.56-.83,2.1-1.36,1.41-1.4,2.85-2.55,5-2.79,1.26-.14,2.5-.08,3.74-.2,.28-.03,.67,.13,.69-.39Z"/><path class="cls-1" d="M79.06,64.41c3.61,.45,6.01,3.27,9.19,4.54-2.76-2.1-4.93-5.34-9.19-4.54Z"/><path class="cls-1" d="M90.7,28.03c-.09-.74-.2-1.62-.89-2.24,.18,1.81,.3,3.6,.83,5.36,.48,1.61,1.46,3.16,.74,4.96-.05,.12,.04,.4,.14,.45,.24,.1,.45-.09,.54-.29,.56-1.14,.51-2.29,.12-3.48-.53-1.57-1.27-3.07-1.48-4.76Z"/><path class="cls-1" d="M64.71,11.55c.3-.08,.5,.13,.69,.34,1.26,1.38,1.5,2.98,.69,4.71,.1,.06,.14,.1,.18,.11,1.1,.18,1.44-.64,1.62-1.41,.31-1.35-1.41-4.21-2.67-4.73-.47-.2-.77-.07-1.06,.26-.14,.16-.37,.29-.27,.56,.19,.5,.52,.24,.84,.16Z"/><path class="cls-1" d="M103.07,76.65c.02,.22,.25,.49,.39,.4,.18-.12,.35-.45,.32-.66-.57-4.04-2.54-7.17-6.27-9.1,.16,.21,.3,.44,.49,.62,2.61,2.39,4.77,5.02,5.07,8.74Z"/><path class="cls-1" d="M73.37,80.17c1.76,.83,3.34,1.95,4.95,3.01,1.15,.76,2.21,1.66,3.31,2.49l.26-.29c-.68-.94-1.56-1.69-2.52-2.36-1.83-1.29-3.52-2.79-5.69-3.54-.34-.12-.63-.24-.76,.14-.1,.29,.22,.43,.46,.54Z"/><path class="cls-1" d="M146.92,17.76c-2.18-1.59-6.87-.76-9.21,1.68,2.99-1.01,5.96-2.13,9.21-1.68Z"/><path class="cls-1" d="M121.62,18.87c-.65-3.2-1.9-5.96-3.94-8.34-.18-.21-.36-.79-.8-.45-.51,.41,.04,.67,.25,.98,1.51,2.21,2.91,4.48,3.67,7.08,.08,.27,.26,.57,.82,.72Z"/><path class="cls-1" d="M146.41,27.69c.22-.04,.29-.34,.19-.57-.14-.34-.38-.06-.54-.02-1.19,.26-2.13,.87-3.02,1.74-.96,.94-1.99,2.06-3.64,1.51-.3-.1-.71-.03-.79,.33-.08,.37,.36,.38,.57,.55,.33,.28,.68,.16,1.29,.25,.47,.17,1.06-.26,1.57-.62,1.47-1.03,2.38-2.81,4.36-3.16Z"/><path class="cls-1" d="M146.21,29.61c-1.13,.9-2.38,1.89-2.04,3.77,1.32-3.39,4.27-4.04,7.32-4.59-1.94-.6-3.75-.39-5.28,.82Z"/><path class="cls-1" d="M82.75,39.11c.32-.14,.97,.01,.81-.56-.15-.52-.8-.38-1.2-.29-2.16,.45-4.43,3.58-4.3,5.92,.55-.26,.57-.71,.77-1.04,1.01-1.64,2.06-3.23,3.93-4.03Z"/><path class="cls-1" d="M88.95,39.86c1.85-2.09,1.64-5.52-.51-9.42-.3,3.17,2.15,6.14,.51,9.42Z"/><path class="cls-1" d="M62.4,66.78c-.24,.22-.73,.48-.36,.85,.24,.23,.61-.06,.9-.29,1.38-1.11,2.86-1.91,4.67-2.21,.9-.15,1.95-.02,3.07-.97-3.34-.19-6.02,.54-8.28,2.61Z"/><path class="cls-1" d="M81.26,32.91c.23-.16,.28-.32,.17-.66-.74-2.39-2.48-3.96-4.38-5.65-.09,.38-.15,.5-.12,.55,1.27,1.85,2.54,3.69,3.83,5.52,.09,.13,.22,.44,.5,.24Z"/><path class="cls-1" d="M89.5,49.52c2.86,1.09,5.96,1.08,8.24,3.19-.44-2.02-6-4.17-8.24-3.19Z"/><path class="cls-1" d="M62.6,17.96c1.41-1.38,2.5-2.85,1.8-5.01-.13-.4-.13-.88-.65-.81-.5,.07-.26,.49-.22,.84,.14,1.37-.13,2.62-1.09,3.71-.4,.45-.94,.9-1.06,1.73,.5-.19,.86-.32,1.22-.45h0Z"/><path class="cls-1" d="M60.1,17.05c.34,.17,.73,.41,.95,.05,.19-.31-.19-.54-.5-.66-.45-.16-.24-.53-.25-.81-.05-1.37,.69-2.36,1.61-3.25h0c-.05-.74-.39-.65-.89-.36-1.37,.8-1.79,2.05-1.83,3.55-.02,.74,.29,1.16,.91,1.48Z"/><polygon class="cls-1" points="61.95 12.35 61.91 12.38 61.95 12.35 61.95 12.35"/><path class="cls-1" d="M103.17,15.18c-.38,.24,0,.62,.15,.94,.3,.63,.51,1.3,.84,1.91,.84,1.53,.93,3.33,1.84,5.05,.3-2.85-.79-5.1-1.93-7.33-.15-.3-.45-.85-.9-.57Z"/><path class="cls-1" d="M82.92,43.09c-.01-.25,.57-.51,.03-.75-.33-.15-.64,.06-.81,.34-.55,.89-1.22,1.74-1.14,2.98-.09,.67,.15,1.31,.69,1.85,.25,.25,.55,.39,.83,.17,.23-.19,.15-.5-.02-.73-.69-.92-.36-1.84,.02-2.75,.15-.36,.43-.67,.41-1.1Z"/><path class="cls-1" d="M85.65,23.67c1.18,.67,1.16,1.84,1.34,2.95,.1,.59-.3,1.68,.35,1.67,.86-.02,.27-1.1,.43-1.51,.11-1.48-.1-2.67-1.21-3.54-.33-.26-.86-.29-.96-.85-.03-.18-.17-.54-.54-.31-.28,.17-.35,.5-.22,.71,.2,.34,.48,.7,.81,.89Z"/><path class="cls-1" d="M66.5,49.92c.26-.73-.77-.62-1.15-.97-.06-.05-.17-.05-.25-.08-1.08-.46-2.34-.73-2.4-2.29,0-.16-.27-.32-.46-.52-.65,.42-.71,.85-.41,1.5,.64,1.4,1.92,1.91,3.23,2.3,.43,.13,1.15,.89,1.44,.07Z"/><path class="cls-1" d="M135.67,25.11c-.25,.26-.34,.58-.06,.81,.19,.16,.5,.1,.72-.12,1.29-1.33,2.76-2.41,4.46-3.2-2.35-.4-3.72,1.09-5.13,2.52Z"/><path class="cls-1" d="M84.77,33.9c-.31,.06-.25,.34-.23,.54,.21,1.93,.81,3.69,2.55,5.37-.32-2.25-1.36-3.86-1.78-5.65-.07-.28-.32-.3-.54-.26Z"/><path class="cls-1" d="M66.58,81.26c-.25-.06-.6-.67-.83,.02-.14,.42,.21,.51,.5,.63,1.95,.83,3.87,1.72,5.76,2.72-1.47-1.66-3.25-2.84-5.43-3.38Z"/><path class="cls-1" d="M144.11,20.01c-.37,.15-.61,.49-.44,.86,.23,.5,.5-.04,.76-.05,.57-.04,1.16-.18,1.66-.33,1.15-.36,2.41,.08,3.76-.66-1.61-.59-2.95-.41-4.27-.27-.5,.05-.99,.27-1.47,.45Z"/><path class="cls-1" d="M86.74,93.21c.32-.05,.52-.25,.3-.65-.13-.23,.07-.52,.08-.75,.05-1.52,1.51-1.6,2.45-2.44-2.08-.8-3.98,.98-3.38,3.36,.07,.28,.28,.52,.55,.48Z"/><path class="cls-1" d="M102.27,10.73c2.06,.89,4.23,.86,6.42,.59-2.1-.63-4.22-1.07-6.42-.59Z"/><path class="cls-1" d="M95.61,16.82c-.21-.55-.44-1.21-1.45-1.62,1.06,2.19,1.42,4.26,1.81,6.34,.05,.28,.17,.39,.44,.34,.28-.05,.3-.19,.26-.47-.23-1.56-.5-3.11-1.06-4.59Z"/><path class="cls-1" d="M141.47,15.02c-2.21,.3-4.1,.31-5.96-.15,1.27,1.62,4.11,1.74,5.96,.15Z"/><path class="cls-1" d="M144.12,36.14c-.33-.13-.78-.27-.96,.09-.16,.31,.21,.49,.5,.65,.76,.42,1.31,1.08,1.79,1.78,.35,.51,.7,1.02,1.5,1.28-.42-1.79-1.14-3.15-2.82-3.8Z"/><path class="cls-1" d="M57.84,32.23c-.23,.14-.35,.28-.32,.51,.04,.26,.24,.34,.5,.33,1.64-.06,3.27,.02,5.01,.37-.88-1.14-4.18-1.8-5.19-1.2Z"/><path class="cls-1" d="M99.65,10.47c2.58-.61,4.78-1.87,7.52-1.98-1.53-.84-5.95,.36-7.52,1.98Z"/><path class="cls-1" d="M81.72,26.3c-.27,.09-.24,.42-.15,.57,.83,1.42,1.45,2.98,2.77,4.56-.13-2.21-.92-3.68-2.17-4.94-.11-.11-.33-.24-.45-.2Z"/><path class="cls-1" d="M85.31,18.38c.96,1.98,3.37,3.06,2.99,5.68,1.02-1.75-.58-4.67-2.99-5.68Z"/><path class="cls-1" d="M90.5,81.16c.72,1.73,1.81,3.2,2.86,4.73,.7-1.15-1.39-4.57-2.86-4.73Z"/><path class="cls-1" d="M70.94,42.97c.88,1.72,1.41,3.52,1.8,5.46,1.1-1.24-.02-4.61-1.8-5.46Z"/><path class="cls-1" d="M60.26,75.77c1.25,1.25,4.76,2.31,5.89,1.89-1.84-.9-3.57-1.68-5.89-1.89Z"/><path class="cls-1" d="M66.63,37.3c1.63,.97,2.54,2.67,3.97,4.01-.07-2.15-1.95-4.05-3.97-4.01Z"/><path class="cls-1" d="M72.7,20.58c-1.74-.96-3.68-.81-5.56-.97,1.72,1.17,3.59,1.38,5.56,.97Z"/><path class="cls-1" d="M100.56,4.17c.87-.3,1.76-.22,2.65-.26,.69-.03,1.41,.16,2.07-.34-1.62-.62-3.26-.63-4.92-.2-.29,.07-.55,.25-.53,.52,.04,.5,.53,.34,.74,.27Z"/><path class="cls-1" d="M107.41,44.24c.9,.49,1.93,.47,2.87,.79,.23,.08,.43-.06,.43-.11-.04-.96-.68-1.12-1.12-1.19-.58-.1-1.11-.27-1.61-.53-.36-.19-.67-.55-.99-.02-.29,.49-.05,.8,.42,1.06Z"/><path class="cls-1" d="M81.3,89.58c.56,1.15,1.24,2.25,1.63,3.49,.19,.62,.53,1.2,.77,1.81,.14,.36,.42,.31,.66,.23,.23-.07,.14-.25,.06-.43-.79-1.84-1.22-3.9-3.12-5.1Z"/><path class="cls-1" d="M135.13,31.83c-.02-.2-.3-.4-.62-.4-1.12,.01-2.26-.1-3.37,.06-.44,.06-1.21,.03-1.47,1.19,1.7-.58,3.29-.4,4.88-.43,.31,0,.6-.24,.58-.42Z"/><path class="cls-1" d="M60.72,20.22c1.16-.13,2-1.24,1.88-2.25-.41,.91-1.31,1.21-2.13,1.35-.58,.1-1.42,.03-1.62-.91-.03-.15-.31-.05-.44,.07-.16,.15-.28,.28-.14,.55,.53,1.01,1.45,1.3,2.45,1.18Z"/><path class="cls-1" d="M62.6,17.96h0Z"/><path class="cls-1" d="M80.1,23.95c.16-.24,.14-.55-.11-.73-1.32-.92-2.78-1.45-4.36-1.6l-.12,.42c1.34,.61,2.68,1.22,4.02,1.83,.19,.09,.37,.36,.56,.08Z"/><path class="cls-1" d="M150.81,31.7c.25-.02,.63,.07,.66-.29,.03-.38-.35-.46-.66-.52-1.48-.31-3.21,1.81-2.83,3.74,.81-1.31,1.12-2.82,2.84-2.93Z"/><path class="cls-1" d="M89.01,14.76c.28-.1,.22-.5,.14-.73-.43-1.24-.88-2.48-1.71-3.52-.26-.33-.54-.78-1.23-.51,1.02,1.29,1.72,2.7,2.15,4.25,.09,.33,.3,.63,.65,.51Z"/><path class="cls-1" d="M63.44,40.45c-.22-.14-.43,.06-.55,.25-.19,.29,.12,.39,.26,.47,1.33,.71,2.44,1.8,3.99,2.19-.82-1.49-2.36-2.07-3.7-2.91Z"/><path class="cls-1" d="M61.51,15.48c-.18,.29-.32,.76,.09,.93,.42,.18,.69-.13,.9-.56,.53-1.07,.3-2.17,.21-3.26-.03-.41-.48-.19-.77-.21-.08,1.04,.18,2.12-.44,3.09Z"/><path class="cls-1" d="M61.95,12.39v-.04h0l-.04,.04h0s.02,0,.03,0Z"/><path class="cls-1" d="M57.79,79.52c1.94,.5,3.79,.99,5.65,1.47-1.33-1.38-4.53-2.13-5.65-1.47Z"/><path class="cls-1" d="M125.18,69.68c-.11,.2-.12,.47,.06,.63,.14,.13,.37,.05,.46-.12,.78-1.41,1.99-2.48,2.94-3.78-1.73,.52-2.64,1.85-3.46,3.27Z"/><path class="cls-1" d="M83.92,48.79c-.51,.3-1.16,1.04-1.32-.32-.02-.21-.31-.51-.61-.4-.24,.09-.46,.3-.44,.61,.07,.78,.2,1.52,1.21,1.55,.74,0,1.28-.38,1.69-.93,.1-.14,.12-.47,.02-.61-.16-.23-.36-.02-.56,.09Z"/><path class="cls-1" d="M70.46,15.63c1.57,.11,3.09,.83,4.99,.42-1.66-.96-3.28-.84-4.78-1.21-.27-.07-.49,.21-.55,.49-.04,.22,.14,.28,.34,.3Z"/><path class="cls-1" d="M59.23,41.51c-.28,.08-.52,.22-.5,.52,.01,.29,.31,.29,.52,.29,1.54-.03,3.09-.09,4.47,.86-.93-1.37-3.01-2.08-4.49-1.66Z"/><path class="cls-1" d="M84.22,46.9c-.75-.9-.73-1.88-.17-2.85,.19-.32,.31-.6,.04-.82-.28-.22-.45,.15-.64,.31-.7,.55-.79,1.4-.75,2.14,.06,1.14,.74,1.58,1.51,1.21l.04,.04-.04-.04h.02Z"/><path class="cls-1" d="M146.19,67.38c-.18-.05-.36,.04-.36,.28,0,.21-.04,.4,.25,.54,1.2,.6,1.44,1.47,.48,2.8,1.59-.25,1.54-1.22,1.41-2.07-.14-.93-.93-1.33-1.78-1.54Z"/><path class="cls-1" d="M61.62,31.04c-.28-.05-.54,.03-.71,.24-.14,.16-.06,.35,.15,.41,1.42,.42,2.81,1,4.34,.85-1.12-.91-2.42-1.28-3.78-1.51Z"/><path class="cls-1" d="M80.28,34.67c-.78-1.8-2.04-3.12-3.74-4.03,1.24,1.35,2.09,3.08,3.74,4.03Z"/><path class="cls-1" d="M120.44,23.26c-.37-.04-.68,.16-.72,.46-.07,.47,.4,.57,.73,.61,1.1,.12,2.18,0,3.38-.59-1.14-.78-2.3-.36-3.39-.48Z"/><path class="cls-1" d="M69.43,96.14c1.58,1.05,2.22,2.58,3.58,3.59,.04-1.52-1.91-3.68-3.58-3.59Z"/><path class="cls-1" d="M82.39,50.67c-1.21-.28-1.78-1.56-2.95-1.91-.16-.05-.28-.24-.45-.08-.07,.07-.12,.23-.1,.33,.14,.58,2.41,2.31,2.99,2.29,.29,.06,.51-.1,.65-.34,.03-.06-.07-.28-.13-.3Z"/><path class="cls-1" d="M144.48,51.79c-1.67,.69-3.44,.24-5.18,1.16,2.35,.56,4.33,.12,5.18-1.16Z"/><path class="cls-1" d="M127.85,20.58c0,.22-.02,.41,.28,.51,1.22,.44,2.39,1.07,4.19,.61-1.53-.86-2.92-.9-4.13-1.42-.18-.07-.33,.07-.33,.29Z"/><path class="cls-1" d="M66.45,50.97c-.32-.11-.5-.11-.61,.14-.08,.18-.09,.57-.02,.61,.93,.43,1.59,1.62,3.05,1.05-.71-.93-1.47-1.47-2.43-1.8Z"/><path class="cls-1" d="M154.24,67.89c-.05-.16-.17-.35-.31-.41-.2-.08-.34,.17-.34,.29,.02,1.26-.93,2.05-1.57,3.17,1.74-.39,2.64-1.76,2.22-3.06Z"/><path class="cls-1" d="M104.03,57.14c-1.06-1.22-1.97-2.16-3.12-2.83-.17-.1-.42-.42-.67-.05-.07,.1-.23,.2-.08,.32,1.11,.94,2.04,2.16,3.87,2.55Z"/><path class="cls-1" d="M126.76,8.01c-1.21-.95-2.58-1.59-4.04-2.06,.89,1.56,2.43,1.88,4.04,2.06Z"/><path class="cls-1" d="M77.68,63.57c-1.03-.01-2.06,0-3.09,0-.26,0-.4,.1-.41,.39-.02,.4,.23,.42,.52,.42,.49,0,.98,0,1.48,0,.49,0,.98,.01,1.48,0,.23,0,.61,.1,.58-.31-.02-.26-.25-.49-.55-.49Z"/><path class="cls-1" d="M74.38,52.63c.23-1.46,.02-2.87-.33-4.4-.86,.92-.62,3.41,.33,4.4Z"/><path class="cls-1" d="M104.13,48.54c-1.29-.91-2.28-1.61-3.28-2.3-.24-.16-.52-.18-.74,.03-.05,.05-.01,.31,.06,.36,1.16,.7,1.97,2.07,3.97,1.92Z"/><path class="cls-1" d="M150.73,67.79c-.21-.19-.4-.17-.58,.02-.1,.11-.31,.23-.08,.41,1.26,.97,.4,2.12,.2,3.31,.95-.36,1.16-1.07,1.25-1.86,.1-.78-.25-1.37-.81-1.88Z"/><path class="cls-1" d="M85.6,43.87c-.11-.19-.27-.2-.45-.19-.2,.01-.3,.1-.34,.31-.18,.97-.37,1.94-.56,2.92,.19,.08,.41,.23,.52,.16,.49-.27,1.09-2.75,.83-3.21Z"/><path class="cls-1" d="M84.21,46.9l.04,.04v-.02h-.02l-.02-.02Z"/><path class="cls-1" d="M112.28,11.98c.15-.92-.12-1.59-.71-2.14-.22-.21-.5-.29-.73-.15-.36,.23,0,.44,.09,.66,.2,.52,.44,1.04,.55,1.59,.08,.41,.07,.95,.54,.91,.57-.05,.17-.65,.26-.87Z"/><path class="cls-1" d="M126.05,20.11c-1.27-.71-2.38-.82-3.27-1.43-.18-.13-.55-.17-.64,.2-.07,.28,.03,.48,.3,.66,1,.63,2.06,.89,3.61,.57Z"/><path class="cls-1" d="M101.19,18.16c-.2,1.67,.6,3.07,1.28,4.5l.42-.11c-.45-1.5-.9-3-1.35-4.49l-.35,.1Z"/><path class="cls-1" d="M151.16,19.8c.28,.1,.51,.34,.79,.46,.47,.21,1.01,.97,1.43,.32,.37-.57-.44-.99-.86-1.32-.28-.22-.65-.49-.8-.44-.53,.13-.87-.06-.98,.3-.11,.36,.06,.55,.42,.68Z"/><path class="cls-1" d="M138.22,36.71c-.05,.29,.12,.39,.38,.42,1.21,.14,2.42,.51,4.03,.05-1.45-.66-2.69-.47-3.8-.85-.26-.09-.55,.03-.61,.37Z"/><path class="cls-1" d="M88.98,15.99c-.21,.14-.46,.31-.28,.65,.5,.95,.99,1.9,1.65,3.17,.44-1.65-.43-2.5-.85-3.49-.11-.25-.14-.58-.52-.34Z"/><path class="cls-1" d="M92.66,79.05c-.09,.07-.18,.13-.28,.2,.55,1.08,1.13,2.15,1.63,3.25,.14,.32,.29,.41,.58,.38,.22-.02,.37-.18,.26-.35-.72-1.17-1.03-2.61-2.19-3.48Z"/><path class="cls-1" d="M65.68,99.58c-.17-.17-.38-.52-.64-.25-.25,.25-.17,.64,.14,.82,.98,.56,1.69,1.56,3.28,1.87-.8-1.28-1.98-1.64-2.77-2.43Z"/><path class="cls-1" d="M75.44,85.41c-.21-.1-.45-.13-.63,.03-.16,.14-.07,.34,.07,.46,.88,.75,1.76,1.49,2.65,2.24-.33-1.26-.96-2.2-2.09-2.73Z"/><path class="cls-1" d="M74.71,89.71c-.18-.11-.41-.38-.65-.01-.2,.31,.11,.37,.22,.5,.83,.86,1.67,1.71,2.51,2.56l.28-.22c-.52-1.15-1.26-2.13-2.36-2.82Z"/><path class="cls-1" d="M113.03,4.55c-1.29-.32-2.48-1.27-4.22-.64,1.5,.81,2.83,.92,4.22,.64Z"/><path class="cls-1" d="M134.78,55.77c.96-.97,2.4-.73,3.44-1.66-2.45-.19-3.43,.26-3.44,1.66Z"/><path class="cls-1" d="M120.57,28.67c-.24-1.3-1.06-1.81-1.49-2.56-.13-.24-.59-.29-.86-.1-.42,.31,.05,.49,.17,.74,.4,.86,1.21,1.22,2.18,1.92Z"/><path class="cls-1" d="M106.75,47.31c-1.57-.75-2.54-1.86-3.91-2.7,.39,1.46,2.16,2.75,3.91,2.7Z"/><path class="cls-1" d="M99.16,27.94c-.1,.03-.18,.28-.18,.43,0,1.04,.2,2.05,.72,3.16,.75-1.28-.07-2.36-.09-3.44,0-.06-.32-.19-.45-.15Z"/><path class="cls-1" d="M137.38,41.15c1.24,.21,2.4,.09,3.68-.43-1.77-.57-3.14-.4-3.68,.43Z"/><path class="cls-1" d="M84.41,15.3c.1-.1,.16-.35,.11-.49-.43-1.07-.7-2.24-1.99-3.13,.3,1.46,1.06,2.39,1.47,3.47,.08,.21,.28,.27,.41,.15Z"/><path class="cls-1" d="M127.8,62.32c-1.57,.46-2.55,1.46-2.78,3.11,.69-1.25,1.84-2.09,2.78-3.11Z"/><path class="cls-1" d="M122.9,27.9c-.36,.05-.3,.44-.19,.59,.49,.67,1.03,1.32,1.57,1.94,.2,.23,.46,.3,.56-.12,.11-.46-1.42-2.43-1.94-2.41Z"/><path class="cls-1" d="M131.64,26.98c-.13,.45,0,.88,.22,1.28,.06,.11,.07,.26,.07,.39-.01,.42,.03,.99,.46,.98,.49-.02,.35-.62,.36-1,0-.13,0-.27,0-.4,0-.57-.25-1.02-.67-1.37-.07-.06-.42,.05-.44,.13Z"/><path class="cls-1" d="M67.22,46.01c-.42-.86-1.57-1.71-2.76-2.52,1.03,.94,2.06,1.88,2.76,2.52Z"/><path class="cls-1" d="M115.4,13.56c-.1,.11-.13,.37-.07,.51,.47,.97,1.13,1.66,2.52,1.52-.7-.7-1.31-1.29-1.91-1.89-.16-.16-.34-.35-.55-.13Z"/><path class="cls-1" d="M91.74,94.55c.49-.33-.22-.79-.12-1.22,.02-.09,0-.18,0-.27,0-.36-.11-.65-.52-.61-.35,.03-.55,.28-.56,.64,0,.31,0,.62,0,.93,.4,.22,.69,.88,1.2,.54Z"/><path class="cls-1" d="M90.54,94.03v-.02s-.03-.02-.04-.02h0l.04,.04Z"/><path class="cls-1" d="M131.12,15.29c.71,.52,1.63,.3,2.35,.69,.22,.12,.47,.39,.62-.03,.08-.22,.05-.44-.28-.62-.88-.47-1.72-.84-2.68-.04Z"/><path class="cls-1" d="M97.93,10.73s-.01,.01-.02,.02l.04,.04s0-.04-.02-.05Z"/><path class="cls-1" d="M99.82,8.42c-1.65,.33-2.32,1.23-1.89,2.31,.94-.54,1.15-1.62,1.89-2.31Z"/><path class="cls-1" d="M85.64,46.31c-.08,.15,0,.53,.11,.59,.28,.14,.5-.1,.63-.34,.44-.81,.46-1.65,.09-2.69-.79,.77-.46,1.72-.83,2.45Z"/><path class="cls-1" d="M151.31,25.52c.06-.02,.16-.23,.12-.28-.12-.19-.26-.37-.38-.35-.72,.23-1.24,.56-1.88,.56-.23,0-.61-.12-.59,.3,.01,.27,.25,.45,.54,.51,.87,.19,1.44-.56,2.19-.73Z"/><path class="cls-1" d="M142.41,34.46c-.96,.18-1.86-.49-2.84-.05,.83,.48,1.63,1.05,2.65,.74,.17-.05,.31-.26,.43-.42,.02-.02-.17-.29-.24-.27Z"/><path class="cls-1" d="M88.97,86.91c.23-.15,.12-.32,.02-.55-.39-.92-.94-1.66-2.11-2.29,.31,1.29,1.17,1.86,1.64,2.68,.09,.15,.27,.29,.45,.17Z"/><path class="cls-1" d="M68.31,79.59c.76,.55,1.59,.98,2.55,1.13-.56-.84-1.39-1.28-2.25-1.68-.18-.08-.34-.34-.55-.07-.27,.34,.08,.49,.26,.62Z"/><path class="cls-1" d="M101.92,42.62c0-.15-.14-.42-.23-.43-.95-.03-1.89-.81-2.99-.11,.85,.86,1.97,.24,2.83,.76,.12,.07,.39,0,.39-.23Z"/><path class="cls-1" d="M61.8,26.26c-.1,.13-.02,.21,.06,.32,.45,.58,2.53,.82,3.27,.33-.95-.24-1.88-.44-2.78-.71-.23-.07-.39-.14-.56,.06Z"/><path class="cls-1" d="M79.15,7.65c.81,.78,1.8,1.13,2.89,1.29-.78-.86-1.69-1.46-2.89-1.29Z"/><path class="cls-1" d="M97.6,25.02c.03-.18-.05-.38-.27-.36-.3,.03-.56,.3-.49,.53,.29,.93,.28,1.95,.9,3.06,.4-1.25-.32-2.21-.14-3.23Z"/><path class="cls-1" d="M62.71,50.06c-.11-.17-.27-.52-.6-.16-.24,.27-.18,.46,.05,.68,.57,.58,1.09,1.27,2.17,.91-.36-.73-1.2-.83-1.62-1.43Z"/><path class="cls-1" d="M114.54,23.13c.77-1.26,.26-2.18-.34-3.08-.14,.99-.03,1.95,.34,3.08Z"/><path class="cls-1" d="M114.22,37.95c-.74-1.06-1.71-1.18-2.98-1.37,.86,1.14,1.8,1.31,2.98,1.37Z"/><path class="cls-1" d="M101.89,29.4v-3.81h-.37c-.13,1.2-.31,2.39,.37,3.81Z"/><path class="cls-1" d="M124.3,66.7c-.5,.47-.88,1.02-.79,1.74,.02,.19,.24,.35,.37,.53,.1-.08,.26-.14,.3-.25,.24-.56,.44-1.13,.68-1.74-.02-.08-.02-.24-.1-.32-.15-.17-.33-.07-.46,.05Z"/><path class="cls-1" d="M133.36,23.77c-.19-.23-.48-.33-.72-.19-.37,.21-.04,.43,.07,.64,.29,.57,.4,1.23,1.02,1.86,.2-.95,.14-1.67-.38-2.31Z"/><path class="cls-1" d="M113.98,35.31c-.88-.94-1.2-1.98-2.39-1.83,.46,.83,1.01,1.55,2.39,1.83Z"/><path class="cls-1" d="M140.52,19.95c-1.04,.24-2.02,0-2.77,1.02,1.18,.18,2.08,.21,2.77-1.02Z"/><path class="cls-1" d="M100.92,7.32c-.22,.13-.55,.69-.09,.62,.77-.12,1.8,.01,2.2-1.01-.78-.32-1.46,0-2.11,.39Z"/><path class="cls-1" d="M103.08,6.94l-.04-.04s0,.01-.01,.02c.02,0,.03,0,.05,.02Z"/><path class="cls-1" d="M100.74,26.95c.02-.93,.48-1.94-.39-2.85-.6,1.13-.06,1.98,.39,2.85Z"/><path class="cls-1" d="M116.87,32.14c-.6-.53-.93-1.33-1.75-1.63-.19-.07-.28-.1-.43,.04-.19,.18-.09,.28,.04,.42,.6,.58,1.11,1.28,2.14,1.17Z"/><path class="cls-1" d="M111.92,20.55c-.11,.81,.23,1.46,.86,2.28,.15-1.06,.1-1.85-.46-2.53-.02-.02-.39,.15-.4,.25Z"/><path class="cls-1" d="M137.53,33.77c-.91-.2-1.81-.38-2.7,.34h2.66c.01-.11,.03-.23,.04-.34Z"/><path class="cls-1" d="M107.05,41.38c-.37-.58-.72-1.17-1.11-1.73-.07-.1-.14-.39-.38-.21-.16,.12-.29,.2-.15,.51,.34,.7,.89,1.14,1.64,1.43Z"/><path class="cls-1" d="M101.07,58.41c-.19,.03-.25,.25-.12,.42,.39,.52,.84,.89,1.67,.44-.55-.37-.84-.97-1.55-.86Z"/><path class="cls-1" d="M76.42,49.81c-.03,.89,.09,1.61,.7,2.41,.07-.98,.26-1.79-.7-2.41Z"/><path class="cls-1" d="M136.86,46.52c-.09,.03-.19,.29-.17,.31,.55,.47,1.2,.46,1.86,.34,.03,0,.06-.04,.18-.13-.61-.34-1.14-.74-1.87-.51Z"/><path class="cls-1" d="M107.6,8.03c-.05,0-.18,.22-.16,.31,.14,.63,.85,.35,1.18,.7,.06,.06,.23,0,.55,0-.39-.82-.95-.99-1.58-1.01Z"/><path class="cls-1" d="M96.8,59.96s-.13,.23-.1,.32c.24,.63,.69,.92,1.56,.75-.61-.37-.73-1.09-1.46-1.06Z"/><path class="cls-1" d="M130.68,34.49c.91,.44,1.48,0,2.46-.35-1.15-.41-1.71,.03-2.46,.35Z"/><path class="cls-1" d="M152.48,28.98c.64,0,1.15,0,1.66-.02,.03,0,.12-.29,.08-.33-.44-.39-.96-.18-1.46-.14-.04,0-.08,.13-.28,.48Z"/><path class="cls-1" d="M57.76,26.16c.5,.02,.89-.27,1.45-.65-.66-.08-1.22-.25-1.59,.32-.04,.06,.09,.33,.15,.33Z"/><path class="cls-1" d="M141.47,33.49c-.44-.11-.88-.23-1.47-.38,.39,.89,.87,.86,1.47,.38Z"/><path class="cls-1" d="M82.74,86.34c.15,.54,.44,.95,1.21,1.26q-.64-1.14-1.21-1.26Z"/><path class="cls-1" d="M40.18,57.92c-2.73-2.33-5.85-4.08-9.28-5.17-1.65-.53-3.09-1.64-4.9-1.69,.03,.29-.2,.61,.33,.81,1.99,.78,3.94,1.65,5.91,2.47,3.69,1.54,7.15,3.43,9.57,6.84,.6,.84,1.12,1.99,2.62,2.47-1.28-2.28-2.5-4.24-4.25-5.73Z"/><path class="cls-1" d="M25.96,51.05s.03,0,.04,0c0-.01,0-.03,0-.05l-.04,.04Z"/><path class="cls-1" d="M11.99,83.23c-.52-.09-1.04-.14-1.56-.27-.53-.14-1.27-.35-1.76,.27-.07,.08-.1,.32-.06,.34,.5,.33,1.05,.48,1.66,.42,.22-.02,.45-.01,.68,0,2.95,.15,5.39,2.93,5.15,5.98-2.65-.91-5.08-2.84-6.44-5.13-.13-.23-.21-.55-.51-.46-.26,.08-.35,.37-.34,.68,0,.29,.13,.5,.26,.74,1.3,2.34,3.43,3.71,5.8,4.65,1.58,.63,2.52-.21,2.08-1.74-.75-2.6-1.85-4.96-4.96-5.48Z"/><path class="cls-1" d="M42.2,82.63c1.79-4.89-2.46-12.72-6.94-13.49,4.79,3.21,6.29,8.13,6.94,13.49Z"/><path class="cls-1" d="M21.37,70.07c.83,.36,1.63,1.07,2.82,.71-.71-.83-1.56-.98-2.29-1.34-2.13-1.06-4.19-2.3-6.41-3.1-2.69-.97-5.62-.92-8.44-1.38-.11-.02-.33,.04-.35,.1-.04,.16-.07,.42,.02,.49,.27,.21,.53,.47,.93,.46,1.16-.03,2.32,.04,3.47,.26,2.02,.39,4.1,.46,5.94,1.55,1.39,.82,2.82,1.6,4.31,2.24Z"/><path class="cls-1" d="M30.21,84.83c-1.16-1.77-2.66-3.25-4.31-4.52-1.3-1.01-2.72-1.91-4.36-2.35-.25-.07-.47-.3-.65,.06-.18,.36,.09,.44,.34,.57,.31,.17,.58,.43,.9,.59,3.3,1.68,6.04,3.98,7.92,7.22,.14,.24,.22,.36,.48,.26,.16-.06,.32-.14,.37-.16-.28-.71-.41-1.24-.69-1.67Z"/><path class="cls-1" d="M35.07,62.08c.87,.78,1.59,1.83,2.95,2.28-1.69-3.38-6.7-6.34-10.11-7.88-.33-.15-.81-.59-1.05-.11-.23,.46,.4,.56,.72,.77,2.46,1.69,5.22,2.91,7.49,4.93Z"/><path class="cls-1" d="M13.44,81.56c-.32-.06-.9-.3-1.05,.25-.19,.68,.43,.44,.77,.56,2.49,.84,4.78,1.88,5.13,4.96,.1,.88-.12,1.87,.7,2.76,.81-4.47-1.36-7.75-5.55-8.53Z"/><path class="cls-1" d="M27.31,92.7c.69-3.2-.46-5.79-2.69-8.05,1.11,2.6,1.98,5.3,2.69,8.05Z"/><path class="cls-1" d="M42.41,55.61c-2.29-3.13-5.84-3.86-9.14-5.39,.33,.56,8.42,5.3,9.14,5.39Z"/><path class="cls-1" d="M18.47,72.29c-.3-.1-.52,.17-.62,.41-.12,.29,.14,.31,.36,.4,2.56,.99,5.25,1.68,7.46,3.49-1.69-2.64-4.48-3.41-7.19-4.3Z"/><path class="cls-1" d="M23.1,87.52c.63,1.83,1.12,3.68,.71,5.65-.04,.2-.09,.52,.17,.58,.37,.07,.54-.21,.63-.54,.75-2.5,.03-4.69-1.44-6.99-.22,.63-.2,.95-.08,1.31Z"/><path class="cls-1" d="M27.81,85.66c-.31,.14-.21,.43-.13,.68,.67,2.11,1.34,4.23,2.01,6.34l.38-.07c.02-2.4-.72-4.62-1.82-6.75-.06-.12-.34-.25-.44-.21Z"/><path class="cls-1" d="M32.27,95.12c.26-2.51,.1-4.94-1.58-7,.73,2.29,.71,4.74,1.58,7Z"/><path class="cls-1" d="M38.54,77.78c.66,2.26,1.32,4.53,1.98,6.79l.44-.13c-.05-2.45-1.01-4.62-2.09-6.75l-.32,.1Z"/><path class="cls-1" d="M15.88,79.83c-.4,.56,.33,.81,.63,1.04,1.35,1.05,2.77,2.02,4.21,3.05,.16-.43,.06-.7-.21-.92-1.17-.96-2.32-1.96-3.52-2.87-.28-.21-.69-.88-1.1-.3Z"/><path class="cls-1" d="M2.43,78.59c.91,1.01,4.24,1.37,6.06,.69-2.06-.61-3.94-.84-6.06-.69Z"/><path class="cls-1" d="M19.45,60.5c1.27,1.07,2.74,1.82,4.26,2.46-.72-1.23-2.25-2.14-4.26-2.46Z"/><path class="cls-1" d="M30.31,62.04c-.35-.25-.75-.18-.92,.19-.17,.38,.27,.49,.5,.64,.94,.57,1.93,1.02,3.27,1.31-.85-1.17-1.96-1.51-2.85-2.14Z"/><path class="cls-1" d="M57.99,57.57c-.2,0-.41,.06-.4,.26,.1,1.19-.41,2.47,.79,3.51,0-1.07,0-2.14,0-3.22,0-.27,0-.55-.4-.55Z"/><path class="cls-1" d="M44.01,57.83c.18,1.66,1.54,3.61,2.67,3.77-.88-1.28-1.38-2.74-2.67-3.77Z"/><path class="cls-1" d="M19.37,83.99c.38,1.47,.68,2.62,1,3.76,.02,.07,.15,.36,.39,.21,.2-.12,.39-.31,.31-.54-.35-1.09-.32-2.35-1.7-3.43Z"/><path class="cls-1" d="M54.48,57.62c-.28,1.4,.09,2.7,.49,4-.09-1.35,.62-2.79-.49-4Z"/><path class="cls-1" d="M37.51,60.38c-.17,.17-.17,.47-.02,.62,.73,.74,1.32,1.7,2.8,1.81-.86-.88-1.55-1.58-2.23-2.28-.16-.16-.33-.36-.55-.16Z"/><path class="cls-1" d="M32.5,74.29c-.23-.19-.41-.5-.69-.09-.27,.39,.04,.6,.3,.74,.76,.41,1.34,1.13,2.35,1.35-.13-1.31-1.27-1.43-1.95-2.01Z"/><path class="cls-1" d="M31.67,70.18c-1.11-.96-1.96-1.75-3.46-2.08,.85,1.43,1.86,1.93,3.46,2.08Z"/><path class="cls-1" d="M29.63,77.1c-.08,.13-.13,.4-.05,.49,.62,.73,1.27,1.43,2.74,1.49-.86-.84-1.29-1.59-2.15-1.96-.2-.09-.38-.3-.54-.01Z"/><path class="cls-1" d="M18.74,50.93c1.35,.24,2.54,.45,4.11,.73-1.68-1.18-2.96-1.39-4.11-.73Z"/><path class="cls-1" d="M29.56,74.08c.14,.12,.25,.06,.35-.02,.26-.22,.07-.39-.09-.54-.7-.68-1.47-1.27-2.61-1.82,.62,1.23,1.58,1.71,2.35,2.38Z"/><path class="cls-1" d="M35.33,74.15c-.41-.33-.77-1.2-1.35-.64-.37,.36,.45,.72,.73,1.07,.31,.4,.66,.8,1.28,.76-.05-.5-.27-.9-.65-1.2Z"/><path class="cls-1" d="M44.24,65.34c-.1,.1-.28,.15-.15,.42,.39,.77,.7,1.59,1.77,1.75-.57-.6-.62-1.47-1.21-2.02-.1-.09-.2-.35-.41-.15Z"/><path class="cls-1" d="M31.21,81.92c-.12-.18-.17-.47-.43-.35-.29,.14-.26,.5-.1,.69,.59,.68,1.19,1.36,2.22,1.44-.53-.65-1.24-1.09-1.69-1.78Z"/><path class="cls-1" d="M22.85,67.38c-.21,.2,.04,.33,.14,.4,.64,.47,1.23,1.06,2.39,1.28-.59-1.06-1.42-1.36-2.11-1.82-.25-.17-.31,.04-.42,.14Z"/><path class="cls-1" d="M50.62,58.98c-.2,.12-.2,.43-.09,.61,.38,.57,.48,1.32,1.26,1.84,.13-.92-.32-1.54-.62-2.2-.09-.19-.32-.38-.55-.24Z"/><path class="cls-1" d="M13.02,79.18c-.52-.6-1.24-.57-1.77-.89-.09-.05-.32,.09-.46,.18-.02,.01,.04,.29,.1,.3,.66,.15,1.23,.79,2.13,.41Z"/><path class="cls-1" d="M27.8,20.3c-1.94-1.45-3.72-3.09-5.42-4.82-.74-.75-1.72-1.11-2.84-.94-.29,.04-.55,.18-.56,.43,0,.18,.23,.41,.49,.38,1.28-.16,1.91,.79,2.69,1.51,.92,.86,1.8,1.8,2.83,2.51,2.3,1.58,4.3,3.3,4.41,6.37,.09,2.48,.58,4.92-.05,7.44-.43,1.69-1.11,3.11-2.46,4.29,.67,.34,1.08,.27,1.49-.12,.78-.75,1.32-1.6,1.71-2.63,1.06-2.82,.68-5.7,.45-8.56-.18-2.25-.77-4.37-2.74-5.86Z"/><path class="cls-1" d="M33.55,19.88c-.58-3.13-2.07-5.9-3.85-8.44-1.61-2.29-4.2-3.21-7.04-3.53,7.28,2.42,8.88,8.9,11.05,15.05-.28-1.07,.02-2.09-.16-3.09Z"/><path class="cls-1" d="M23.51,24.14c1.49,3.55,1.58,6.89,.6,10.27,2.19-1.86,2.13-8.78-.6-10.27Z"/><path class="cls-1" d="M38.75,14.68c-.12-.96-.28-.94-.89-1.02,.24,3.52,1.13,6.85,4.03,9.49,.05-.29,.07-.33,.06-.35-1.5-2.53-2.82-5.12-3.21-8.11Z"/><path class="cls-1" d="M45.86,15.9c-.09-.2-.18-.32-.38-.23-.18,.09-.41,.18-.3,.48,.1,.29,.16,.6,.3,.87,1.27,2.4,2.35,4.86,2.71,8.01,.38-.81,.68-1.08,.61-1.72-.3-2.75-1.87-4.97-2.93-7.4Z"/><path class="cls-1" d="M16.46,14.63c-1.77,1.37-1.72,6.87,.06,8.91-.45-3.1-.46-5.9-.06-8.91Z"/><path class="cls-1" d="M15.92,27.62c-.33,.03-.31,.29-.28,.5,.07,.57,.12,1.14,.27,1.69,.59,2.15,1.55,4.05,3.76,5.05-1.76-1.98-2.68-4.32-3.22-6.85-.08-.37-.25-.42-.54-.4Z"/><path class="cls-1" d="M45.62,24.67c-1.35-2.75-3.09-4.93-3.92-7.56-.26,2.39,1.66,6.14,3.92,7.56Z"/><path class="cls-1" d="M27.31,18.12c1.69,1.94,3.17,3.84,3.98,6.33,.89-1.99-1.82-6.23-3.98-6.33Z"/><path class="cls-1" d="M26.62,25.27c.53,2.74,1.14,5.25,.33,7.77,1.66-1.65,1.54-6.29-.33-7.77Z"/><path class="cls-1" d="M19.69,28.83c-1.14-.72-1.17-1.82-1.06-2.98,.04-.4-.06-.85-.41-.9-.49-.07-.54,.49-.67,.84-.07,.2-.01,.45-.02,.67-.02,1.69,.57,2.59,1.79,2.86,.25,.06,.38,.09,.54-.1,.19-.24-.08-.34-.17-.4Z"/><path class="cls-1" d="M20.06,11.85c.3,.17,.59,.37,.9,.54,.87,.48,1.74,.95,2.93,1.6-.74-1.89-2.2-2.33-3.48-2.94-.29-.14-1.08-.38-1.2,.34-.13,.71,.57,.3,.86,.47Z"/><path class="cls-1" d="M31.44,34.64c1.25-1.05,1.75-3.78,.84-5.58-.02,2.13-.97,3.73-.84,5.58Z"/><path class="cls-1" d="M34.7,24.09c-.34,.01-.31,.3-.26,.5,.33,1.24,.68,2.48,1.02,3.72,.42-1.29,.3-2.54-.21-3.74-.12-.28-.23-.49-.55-.48Z"/><path class="cls-1" d="M20.88,25.26c-.14-.12-.34-.45-.66-.2-.25,.19-.13,.37-.02,.56,.55,.94,.63,1.99,.64,3.32,.91-1.22,.85-3,.03-3.68Z"/><path class="cls-1" d="M31.96,11.98c-.13,.08-.23,.18-.1,.42,.6,1.15,1.03,2.4,2.02,3.29l.33-.2c-.55-1.07-1.09-2.15-1.67-3.2-.09-.17-.24-.53-.58-.31Z"/><path class="cls-1" d="M22.14,26.52c.14,1.31-.09,2.54-.27,4.07,1.34-1.61,1.41-3.46,.27-4.07Z"/><path class="cls-1" d="M27.56,15.68c-.29-1.07-1.13-1.56-1.72-2.24-.16-.19-.32-.27-.52-.02-.12,.15-.26,.33-.1,.47,.71,.61,1.14,1.61,2.34,1.79Z"/><path class="cls-1" d="M23.96,38.25c.17,.26,.4,.32,.7,.18,.77-.36,1.51-.73,1.55-1.85-.82,.19-1.18,1.01-1.94,1.14-.17,.03-.55,.17-.32,.53Z"/><path class="cls-1" d="M20.93,35.87c-.02,.14,.16,.38,.32,.47,.85,.55,1.61,.31,2.62-.48-1.03-.06-1.75-.04-2.43-.17-.28-.05-.47-.02-.5,.18Z"/><path class="cls-1" d="M50.85,21.09c-.13,.75-.27,1.42-.34,2.09-.04,.34,.21,.6,.55,.6,.32,0,.48-.42,.42-.57-.27-.66,.13-1.5-.63-2.12Z"/><path class="cls-1" d="M20.63,20.9c-.29,.26,.06,.45,.22,.64,.51,.62,1.02,1.23,1.53,1.85,.13-.14,.26-.28,.39-.41-.44-.64-.88-1.28-1.33-1.92-.21-.3-.56-.39-.82-.16Z"/><path class="cls-1" d="M34.33,34.91c1.01-.83,1.03-1.84,.51-2.94-.17,.98-.34,1.96-.51,2.94Z"/><path class="cls-1" d="M16.09,13.19c.74,0,1.45-.02,2.36-.82-1.05,0-1.73,0-2.42,0-.26,0-.46,.12-.47,.37-.01,.32,.19,.45,.52,.45Z"/><path class="cls-1" d="M62.72,56.94c0,1.04-.11,2.13,.7,3.07,.42-1.21-.13-2.2-.15-3.24-.22,0-.55-.04-.55,.18Z"/><path class="cls-1" d="M63.27,56.77s.02,0,.03,0h0l-.04-.04s0,.03,0,.04Z"/></g></g></svg>