<?xml version="1.0" encoding="UTF-8"?><svg id="_лой_2" xmlns="http://www.w3.org/2000/svg" viewBox="0 0 107.67 75.48"><defs><style>.cls-1{fill:#fff;}</style></defs><g id="OBJECTS"><g><path class="cls-1" d="M7.64,42.61c-3.48-3.48-5.3-7.87-5.63-12.91-.43-6.48,2.12-11.68,6.4-16.23,.76-.8,1.75-1.39,2.78-2.19-.08,.79-.24,1.49,.43,2.02,.94,.73,1.98,.4,2.88,.16,1.99-.52,3.84-1.41,5.54-2.97,.03,2.02-.34,3.75,.35,5.47,.39,.98,.96,1.78,1.88,2.01,1,.25,1.52-.77,1.89-1.46,.95-1.74,1.09-3.65,.57-5.71,1.08,.48,1.99,.96,3.08,1.03,1.06,.07,2.02,0,2.74-.83,.57-.66,1.11-.61,1.77-.2,5.39,3.3,8.87,8,9.91,14.25,.36,2.15,.4,4.21,.15,6.2,.64,0,1.29,.02,1.95,.07,0-.09,.03-.17,.04-.26,1.29-13.32-9.07-23.87-21.14-24.34C11.42,6.27,.26,15.49,.06,27.8c-.88,12.23,8.78,22.73,20.9,23.35,.07-.8,.19-1.59,.35-2.38-5.32-.14-9.86-2.35-13.66-6.16ZM12.76,11.23c1.27-1.71,3.15-2.21,5.12-2.66,4.35-.97,8.49-.46,12.5,1.3-2.15,1.78-4.03,.57-5.87-.54-.55-.33-.86-.49-1.4-.06-.62,.5-.11,.76,.08,1.19,.81,1.84,.83,3.71-.09,5.55-.19,.38-.51,.58-.79,.84-.25-.3-.59-.56-.75-.9-.47-1-.78-2.06-.72-3.19,.06-1.18,.1-2.36,.15-3.53-1.45-.25-2.17,.96-3.15,1.57-1.32,.81-2.72,1.36-4.19,1.78-.45,.13-1.04,.28-1.34-.18-.28-.43,.19-.84,.43-1.16Z"/><path class="cls-1" d="M7.36,20.14c-2.46,1.57-3.4,8.63-1.59,9.84-.3-3.32,.02-6.56,1.59-9.84Z"/><path class="cls-1" d="M35.32,17.8c1.42,2.46,1.48,5.21,2.6,8.04,.61-3.69-.57-7.3-2.6-8.04Z"/><path class="cls-1" d="M8.81,30.42c-.67-2.47,.37-4.82,.62-7.46-1.87,1.87-2.14,5.62-.62,7.46Z"/><path class="cls-1" d="M36.37,32.2s.06-.02,.08-.03c0-.06,0-.12,0-.19-.03,.07-.05,.14-.08,.21Z"/><path class="cls-1" d="M6.96,23c-1.09,2.2-.45,4.33,.24,6.46,.18-.63,.18-1.25,.12-1.89-.15-1.44-.29-2.92,.37-4.3,.12-.25,.63-.54,0-.77-.45-.17-.57,.2-.72,.5Z"/><path class="cls-1" d="M38.86,26.9c.08,1.58-.04,3.14-.12,4.72,.27-.05,.55-.09,.82-.13,.26-1.36,.06-3.2-.7-4.59Z"/><path class="cls-1" d="M21.09,46.28c-2.11-.68-4.27-1.27-5.89-2.95,1.2,2.47,3.31,3.16,5.89,2.95Z"/><path class="cls-1" d="M6.39,35.6c-.12,.11-.21,.39-.15,.53,.68,1.56,1.33,3.16,3.16,3.78-.96-1.33-2.27-2.41-2.61-4.11-.04-.22-.22-.36-.41-.19Z"/><path class="cls-1" d="M9.15,36.64c-.18-.27-.49-.28-.59,.17-.15,.73,1.49,2.97,2.3,2.99,.25-.01,.34-.23,.14-.46-.72-.83-1.26-1.78-1.85-2.7Z"/><path class="cls-1" d="M34.29,32.95c.24-.1,.48-.2,.73-.29-.04-.03-.07-.06-.13-.08-.29-.08-.5,.14-.6,.37Z"/><path class="cls-1" d="M19.35,43.8c-.15,.24,.12,.37,.23,.44,.84,.55,1.72,.96,2.9,.71,.04-.11,.09-.21,.14-.32-1.01-.4-1.94-.53-2.67-1.1-.23-.18-.47,.05-.6,.26Z"/><path class="cls-1" d="M91.29,.75c-11.43-3.06-24.35,3.46-27.27,15.41-3.6,11.85,3.67,24.36,15.57,27.5,12.06,3.19,23.35-3.68,26.94-14.5,4.21-12.7-3.56-25.29-15.23-28.42Zm-11.22,2.07c1.61-1.39,3.56-1.46,5.59-1.46,4.45,.01,8.38,1.43,11.91,4.04-2.49,1.26-4.06-.33-5.6-1.82-.46-.44-.73-.67-1.35-.37-.72,.35-.27,.71-.18,1.18,.38,1.98-.02,3.8-1.32,5.39-.27,.32-.62,.45-.96,.64-.18-.35-.45-.67-.53-1.04-.24-1.08-.3-2.18,0-3.27,.32-1.14,.62-2.28,.93-3.41-1.36-.56-2.33,.46-3.42,.83-1.47,.5-2.96,.72-4.48,.81-.47,.03-1.08,.04-1.27-.47-.17-.48,.37-.78,.68-1.04Zm25.69,20.01c-.39,6.64-3.39,11.92-8.93,15.7-4.36,2.98-9.11,3.96-14.34,3.25-6.36-.86-11.06-4.26-14.36-9.5-2.62-4.17-3.43-8.85-2.64-13.83,1.02-6.41,4.65-10.92,9.83-14.41,.92-.62,2.01-.97,3.19-1.52-.26,.75-.57,1.4-.03,2.06,.76,.92,1.84,.82,2.78,.79,2.05-.07,4.05-.52,6.06-1.67-.42,1.98-1.16,3.58-.87,5.42,.16,1.04,.54,1.95,1.39,2.38,.92,.47,1.65-.41,2.17-1.01,1.31-1.49,1.87-3.32,1.82-5.45,.95,.71,1.73,1.38,2.77,1.69,1.02,.3,1.97,.45,2.86-.2,.71-.52,1.21-.35,1.77,.2,4.53,4.41,6.88,9.76,6.51,16.09Z"/><path class="cls-1" d="M72.83,10.32c-2.74,.99-5.23,7.66-3.73,9.25,.44-3.3,1.47-6.39,3.73-9.25Z"/><path class="cls-1" d="M100.61,14.22c.84,2.71,.29,5.41,.76,8.41,1.41-3.47,1.06-7.24-.76-8.41Z"/><path class="cls-1" d="M71.98,20.66c-.11-2.56,1.43-4.62,2.25-7.14-2.24,1.41-3.33,5.01-2.25,7.14Z"/><path class="cls-1" d="M98.57,28.31c-1.39,2.22-3.03,3.73-4.5,5.64,2.12-.47,4.15-2.94,4.5-5.64Z"/><path class="cls-1" d="M72.62,12.69c-.4-.26-.6,.07-.81,.33-1.55,1.91-1.4,4.13-1.19,6.35,.31-.58,.46-1.17,.53-1.81,.17-1.43,.36-2.91,1.31-4.12,.17-.22,.73-.38,.16-.75Z"/><path class="cls-1" d="M102.05,23.88c-.36,2.07-1.06,4.03-1.57,6.09,1.35-.53,2.25-3.7,1.57-6.09Z"/><path class="cls-1" d="M90.76,37.86c2.12,1.38,4.9,.16,6.17-2.83-1.15,.88-2.02,1.54-2.87,2.2-.94,.73-2.13,.35-3.3,.63Z"/><path class="cls-1" d="M75.35,34.67c.62,2.67,2.53,3.82,5.09,4.18-1.91-1.13-3.88-2.18-5.09-4.18Z"/><path class="cls-1" d="M68.47,25.18c-.14,.08-.29,.34-.26,.48,.32,1.67,.6,3.38,2.25,4.38-.64-1.51-1.68-2.85-1.63-4.59,0-.22-.13-.4-.35-.28Z"/><path class="cls-1" d="M70.93,26.81c-.11-.31-.42-.38-.61,.04-.31,.68,.8,3.23,1.58,3.42,.25,.04,.38-.15,.24-.42-.52-.97-.84-2.01-1.21-3.04Z"/><path class="cls-1" d="M96.94,29.3c.14-.18,.34-.56-.02-.75-.3-.16-.61,.07-.73,.32-.53,1.08-1.56,1.74-2.37,3,1.61-.47,2.34-1.55,3.12-2.56Z"/><path class="cls-1" d="M79.28,36.04c-.2,.2,.03,.38,.12,.48,.8,.83,1.69,1.49,3.25,1.31-1.02-.8-2.06-1.1-2.73-1.91-.18-.22-.47-.05-.65,.12Z"/><path class="cls-1" d="M44.99,31.37c-.22-.02-.43-.03-.65-.05-.66-.05-1.31-.07-1.95-.07-.96,.01-1.91,.09-2.83,.23-.28,.04-.55,.08-.82,.13-.78,.14-1.54,.33-2.29,.56-.03,0-.06,.02-.08,.03-.46,.14-.9,.3-1.34,.46-.25,.09-.49,.19-.73,.29-5.33,2.26-9.48,6.57-11.68,11.68-.05,.11-.09,.21-.14,.32-.51,1.24-.9,2.51-1.17,3.82-.16,.78-.28,1.58-.35,2.38-.04,.45-.07,.89-.08,1.34-.81,12.18,8.77,22.45,20.81,22.97,12.49,.53,22.33-8.82,23.05-20.52,.8-13.08-8.8-22.43-19.75-23.56Zm-4.38,42.24c-10.16-1.03-18.69-9.75-18.28-21.19,.42-11.76,10.72-19.78,21.26-19.27,11.27,.36,20.03,9.85,19.6,21.04-.42,10.88-9.78,20.73-22.58,19.43Z"/><path class="cls-1" d="M44.18,69.32c-.03-1.29-.11-2.53-.63-3.72-.27-.6-.36-1.45-1.18-1.49-1.02-.05-.76,1.03-.8,1.48-.18,1.99-.84,4.03,.22,6.04-.96-.04-1.94-.08-2.93-.13l-.02,.49c1.7-.02,3.39,.44,5.1-.13,.21-.07,.64-.52,.53-.57-1.12-.52-.26-1.37-.28-1.98Zm-.87,.82c-.04,.38-.18,.72-.57,.69-.38-.03-.49-.39-.47-.77,.07-1.41,.12-2.83,.2-4.57,.83,1.68,1.02,3.13,.85,4.65Z"/><path class="cls-1" d="M41.16,43.17c.25,.21,.52,.5,.65,0,.37-1.5,1.24-2.86,1.29-4.57,.15-1.15-.46-2.11-1.33-2.91-.9-.82-1.95-.45-2.52,.65-.53,1.02-.17,2-.07,2.97,.17,1.51,.79,2.85,1.99,3.87Zm-.66-6.95c.31-.11,.7,.2,.97,.48,.74,.77,.74,1.68,.43,2.62-.27,.81-.56,1.6-.62,2.49-.96-1.42-1.36-2.95-1.26-4.63,.02-.41,.2-.85,.48-.95Z"/><path class="cls-1" d="M52.55,51.84c-.35,.03-.78,.43-.67,.96,.1,.47,.48,.52,.89,.53,.86,.02,1.72,.07,2.59,.11,.91,.04,1.81,.15,2.71,.09,.69-.04,1.53-.11,1.82-.89,.28-.75,.1-1.53-.4-2.18-.67-.86-2.2-.93-3.48-.29-1.14,.57-2.07,1.53-3.46,1.67Zm5.51-.91c.67,0,.8,.43,.85,.89,.06,.56-.33,.71-.84,.7-1.5-.04-3,.38-4.66-.06,1.03-.25,1.81-.64,2.55-1.09,.66-.4,1.35-.42,2.09-.43Z"/><path class="cls-1" d="M50.99,44.13c1.58-.09,2.76-.99,3.89-1.99,.41-.37,.7-.75,.6-1.26,.07-1.25-.77-2.45-1.69-2.33-1.33,.18-2.51,.65-2.99,2.11-.27,.79-.44,1.61-.68,2.4-.32,1.07,.18,1.11,.87,1.07Zm1.8-4.27c.49-.29,1.2-.65,1.56,.05,.3,.59,.28,1.37-.42,1.82-.89,.57-1.8,1.13-3,1.27,.37-1.23,.69-2.45,1.85-3.14Z"/><path class="cls-1" d="M50.73,61.46c-.91-.77-1.14-.31-1.11,.65,.19,1.81,.82,3.45,2.27,4.64,.72,.59,1.57,.64,2.23-.22,.59-.76,.92-1.52,.09-2.38-1.04-1.07-2.36-1.75-3.48-2.7Zm2.56,4.59c-.46,.16-.9,0-1.16-.36-.54-.73-.99-1.52-1.35-2.73,.96,.64,1.64,1.15,2.37,1.56,.41,.23,.54,.48,.51,.91-.02,.28-.1,.53-.37,.62Z"/><path class="cls-1" d="M32.67,45.96c.83,.04,1.39,.09,1.95,.08,.62-.01,.95-.07,.46-.87-1.09-1.77-2.79-2.47-4.65-2.93-.49-.12-1.24-.33-1.5,.36-.24,.63-.22,1.3,.24,1.96,.95,1.37,2.33,1.4,3.49,1.4Zm-2.78-2.47c.18-.5,.73-.28,1.01-.18,1.01,.36,1.98,.81,3.05,1.64-1.33-.05-2.43,.07-3.44-.45-.37-.19-.79-.52-.61-1.02Z"/><path class="cls-1" d="M30.37,54.81c-.42-.24-.86,.02-1.18-.32-.81-.88-1.89-.99-2.98-.99-1.21,0-2.33,1.01-2.34,2.04-.01,1.01,.66,1.46,2.15,1.59,1.94,.18,3.12-1.02,4.35-2.33Zm-4.47,1.28c-.39-.05-.88-.03-.94-.46-.07-.5,.39-.91,.82-.99,1-.17,2.02-.22,3.06,.39-.89,.84-1.82,1.2-2.94,1.07Z"/><path class="cls-1" d="M35.38,61.89c-1.18,.77-2.22,1.73-2.32,3.51-.4,1.09,.7,1.4,1.44,1.66,.91,.31,1.33-.49,1.5-1.27,.23-1.03,.44-2.07,.57-3.11,.11-.94-.54-1.21-1.2-.79Zm-.21,3.56c-.01,.31-.14,.59-.49,.52-.4-.09-.7-.35-.51-.82,.3-.77,.68-1.49,1.3-2.06,.28,.85-.26,1.57-.29,2.36Z"/><path class="cls-1" d="M56.17,65.86c2.55,.06,5.6-7.15,4.63-11.16,.11,4.38-2.1,7.76-4.63,11.16Z"/><path class="cls-1" d="M30.64,67.12c-1.93-2.03-3.19-4.28-4.4-6.6-.22,1.87,2.64,6.23,4.4,6.6Z"/><path class="cls-1" d="M46,35.59c.26,.03,.49,.18,.71,.22,1.25,.24,2.43,.86,3.7,.73,.21-.49-.16-.49-.37-.59-1.26-.59-2.64-.82-3.98-1.12-.39-.09-1.08-.21-1.12,.27-.06,.62,.64,.45,1.06,.49Z"/><path class="cls-1" d="M24.73,50.05c.15-2.21,.95-4.21,2.03-6.33-1.75,1.04-2.7,4.04-2.03,6.33Z"/><path class="cls-1" d="M40.32,51.2c.2-.07,.51-.23,.32-.56-.15-.26-.34-.04-.53,0-1.35,.29-2.02,1.16-2.08,2.83-.03,.34-.12,.96,.37,1,.68,.06,.28-.64,.41-.98,.34-.87,.42-1.9,1.51-2.29Z"/><path class="cls-1" d="M32.65,38.41c.22,.44,.54-.03,.81-.1,.64-.18,1.3-.31,1.89-.59,.65-.31,1.49-.17,2.06-.87-1.59-.31-2.94,.16-4.29,.74-.46,.2-.62,.52-.47,.82Z"/><path class="cls-1" d="M60.18,46.51c.4,1.6,.13,3.29,.83,4.95,.66-1.85,.32-4.02-.83-4.95Z"/><path class="cls-1" d="M46.79,50.99c-.44-.34-1.3-.64-1.48-.3-.27,.51,.63,.59,.96,.92,.26,.26,.71,.32,1.12,.49,.14-.65-.3-.87-.6-1.1Z"/><path class="cls-1" d="M46.32,56.41c-.66,.4-1.31,.8-2.28,1.38,1.51,.35,1.91-.49,2.28-1.38Z"/><path class="cls-1" d="M47.45,52.44c.38,.84,.05,1.54,.25,2.23,1-.61,.97-1.11-.25-2.23Z"/><path class="cls-1" d="M42.35,57.56c-.58-.44-1.17-.88-1.75-1.32,.11,1.12,.71,1.52,1.75,1.32Z"/><path class="cls-1" d="M44.79,50.3c-.57-.24-1.01-.35-1.43,.1,.44,.14,.92,.44,1.43-.1Z"/></g></g></svg>